<svg fill="none" height="50" viewBox="0 0 48 50" width="48" xmlns="http://www.w3.org/2000/svg"><g stroke="#06f" stroke-linecap="round" stroke-linejoin="round" stroke-width="2"><path d="m18.0002 45.667h-12.71115c-.51861 0-1.01603-.2107-1.38281-.5858-.36671-.3751-.57274-.8838-.57274-1.4142v-38.00001c0-.5304.20603-1.03912.57274-1.41424.36678-.37505.8642-.58576 1.38281-.58576h11.73335"/><path d="m35.1111 3.66699h8.1778c.5422 0 1.0622.21071 1.4457.58576.3833.37512.5987.88384.5987 1.41424v38.00001c0 .5304-.2154 1.0391-.5987 1.4142-.3835.3751-.9035.5858-1.4457.5858h-13.2889"/><path d="m45.3335 21.667h-12v10h-6"/><path d="m45.3332 13.667h-8.6667"/><path d="m12.6665 3.66699v10.00001h-4"/><path d="m3.3335 21.667h9.3333v10"/><path d="m8.6665 45.6663v-9.3333"/><path d="m25.3335 48.3337v-10.6667h-6v-22h8v-14.00001"/><path d="m32.6668 21.667h-7.3333"/><path d="m39.3335 27.667v18"/><path d="m22 6.33366 5.3333-4.66667 5.3334 4.66667"/></g></svg>