<svg fill="none" height="50" viewBox="0 0 50 50" width="50" xmlns="http://www.w3.org/2000/svg"><g stroke="#06f" stroke-linecap="round" stroke-linejoin="round" stroke-width="2"><path d="m20.9998 18.3334c10.6775 0 19.3334-3.7309 19.3334-8.3333 0-4.60243-8.6559-8.33335-19.3334-8.33335s-19.3333 3.73092-19.3333 8.33335c0 4.6024 8.6558 8.3333 19.3333 8.3333z"/><path d="m20.9998 26.3333c-10.6761 0-19.3333-3.58-19.3333-8"/><path d="m18.3332 35c-9.44378-.6078-16.6667-3.9605-16.6667-8"/><path d="m18.9998 44.3334c-9.73926-.4308-17.3333-3.9036-17.3333-8.1236v-26.54305"/><path d="m40.3335 9.66675v9.33335"/><path d="m28.3332 40.3333c2.5773 0 4.6666-2.0894 4.6666-4.6666 0-2.5774-2.0893-4.6667-4.6666-4.6667-2.5774 0-4.6667 2.0893-4.6667 4.6667 0 2.5772 2.0893 4.6666 4.6667 4.6666z"/><path d="m43.6667 48.3333c2.5773 0 4.6666-2.0893 4.6666-4.6667 0-2.5773-2.0893-4.6666-4.6666-4.6666-2.5774 0-4.6667 2.0893-4.6667 4.6666 0 2.5774 2.0893 4.6667 4.6667 4.6667z"/><path d="m43.6667 33.0001c2.5773 0 4.6666-2.0893 4.6666-4.6667 0-2.5773-2.0893-4.6667-4.6666-4.6667-2.5774 0-4.6667 2.0894-4.6667 4.6667 0 2.5774 2.0893 4.6667 4.6667 4.6667z"/><path d="m33 34.3333 6-3.3333"/><path d="m32.3335 38.3333 6.6667 3.3333"/></g></svg>