<svg fill="none" height="49" viewBox="0 0 49 49" width="49" xmlns="http://www.w3.org/2000/svg"><g stroke="#06f" stroke-linecap="round" stroke-linejoin="round" stroke-width="2"><path d="m12.5762 41.3893c1.0431-.1737 2.0252-.6091 2.8542-1.2657.8289-.6565 1.4778-1.5127 1.8858-2.4883"/><path d="m5.51855 17.7583c2.01796.3539 3.92584 1.1726 5.57265 2.3914 1.6468 1.2188 2.9873 2.8041 3.9154 4.6306"/><path d="m12.2422 21.1241 3.586-2.69"/><path d="m20.6765 2.01221c-.0385 2.00493-.4004 3.99049-1.072 5.88"/><path d="m18.6758 11.6665c1.1046 0 2-.8954 2-2 0-1.10457-.8954-2-2-2s-2 .89543-2 2c0 1.1046.8954 2 2 2z"/><path d="m30.6758 15.6665c1.1046 0 2-.8954 2-2s-.8954-2-2-2-2 .8954-2 2 .8954 2 2 2z"/><path d="m37.6758 23.6665c1.1045 0 2-.8954 2-2s-.8955-2-2-2c-1.1046 0-2 .8954-2 2s.8954 2 2 2z"/><path d="m30.6758 30.6665c1.1046 0 2-.8954 2-2s-.8954-2-2-2-2 .8954-2 2 .8954 2 2 2z"/><path d="m17.6758 19.6665c1.1046 0 2-.8954 2-2s-.8954-2-2-2-2 .8954-2 2 .8954 2 2 2z"/><path d="m15.6758 28.6665c1.1046 0 2-.8954 2-2s-.8954-2-2-2-2 .8954-2 2 .8954 2 2 2z"/><path d="m47.6764 24.6665c.004-1.3839-.3472-2.7457-1.0198-3.9552-.6727-1.2094-1.6444-2.2261-2.8222-2.9528.1356-.5905.206-1.1941.21-1.8.0193-2.0053-.7182-3.9441-2.0654-5.4296-1.3472-1.48546-3.2049-2.40831-5.2026-2.5844.0205-.81072-.1203-1.61743-.4141-2.37331-.2939-.75588-.7349-1.44586-1.2976-2.02991-.5626-.58405-1.2357-1.05053-1.9801-1.37236s-1.5453-.49261-2.3562-.50242c-1.2721.07284-2.5023.48133-3.5653 1.18394-1.0631.7026-1.9211 1.67424-2.4867 2.81606-.5656-1.14182-1.4236-2.11346-2.4866-2.81606-1.063-.70261-2.2932-1.1111-3.5654-1.18394-.8109.00981-1.6118.18059-2.3562.50242s-1.4174.78831-1.9801 1.37236c-.5626.58405-1.0037 1.27403-1.2975 2.02991s-.4346 1.56259-.4142 2.37331c-1.9983.17614-3.85666 1.09956-5.20395 2.5859-1.34729 1.4863-2.08436 3.4261-2.06402 5.4321.00076.6055.06782 1.2091.2 1.8-1.17493.7297-2.14431 1.7471-2.81649 2.9559s-1.02495 2.569-1.02495 3.9521.35277 2.7433 1.02495 3.9521 1.64156 2.2262 2.81649 2.9559c-.13218.5909-.19924 1.1945-.2 1.8-.01831 2.0046.71966 3.9424 2.06676 5.4271 1.34709 1.4846 3.20431 2.4069 5.20121 2.5829-.0204.8107.1204 1.6174.4142 2.3733s.7349 1.4459 1.2975 2.0299c.5627.5841 1.2357 1.0506 1.9801 1.3724s1.5453.4926 2.3562.5024c1.1765.0285 2.3422-.2297 3.3966-.7524 1.0544-.5226 1.9658-1.294 2.6554-2.2476.6897.9536 1.601 1.725 2.6554 2.2476 1.0544.5227 2.2201.7809 3.3966.7524.8109-.0098 1.6118-.1806 2.3562-.5024s1.4175-.7883 1.9801-1.3724c.5627-.584 1.0037-1.274 1.2976-2.0299.2938-.7559.4346-1.5626.4141-2.3733 1.9984-.1761 3.8567-1.0996 5.204-2.5859s2.0844-3.4261 2.064-5.4321c-.004-.6059-.0744-1.2095-.21-1.8 1.1772-.7263 2.1486-1.7424 2.8212-2.9511s1.0241-2.5697 1.0208-3.9529z"/><path d="m24.6758 5.6665v23"/><path d="m24.6758 36.5825v8.084"/><path d="m43.0224 11.9927-5.546 2.776c-.7996.4003-1.6799.613-2.574.622s-1.7785-.1859-2.586-.57"/><path d="m30.6758 26.6665c.2908-1.2137.9119-2.3231 1.7943-3.2056.8825-.8825 1.992-1.5036 3.2057-1.7944"/><path d="m36.7758 41.3885c-.552-1.922-1.494-3.4-3.1-3.722"/><path d="m17.6758 37.6665c1.1046 0 2-.8954 2-2s-.8954-2-2-2-2 .8954-2 2 .8954 2 2 2z"/><path d="m31.6758 39.6665c1.1045 0 2-.8954 2-2s-.8955-2-2-2c-1.1046 0-2 .8954-2 2s.8954 2 2 2z"/></g></svg>