<svg fill="none" height="50" viewBox="0 0 50 50" width="50" xmlns="http://www.w3.org/2000/svg"><g stroke="#06f" stroke-linecap="round" stroke-linejoin="round" stroke-width="2"><g clip-rule="evenodd" fill-rule="evenodd"><path d="m10.3337 41.9167c0-.5063-.4975-.9167-1.11115-.9167h-4.44445c-.61365 0-1.11111.4104-1.11111.9167v6.4166h6.66671z"/><path d="m22.3337 32.5924c0-.5113-.4975-.9259-1.1112-.9259h-4.4444c-.6136 0-1.1111.4146-1.1111.9259v15.7408h6.6667z"/><path d="m34.3337 37.9444c0-.5216-.4975-.9444-1.1112-.9444h-4.4444c-.6136 0-1.1111.4228-1.1111.9444v10.3889h6.6667z"/><path d="m46.3337 23.2621c0-.5129-.4975-.9286-1.1112-.9286h-4.4444c-.6136 0-1.1111.4157-1.1111.9286v25.0714h6.6667z"/></g><path d="m9 17.6667 4.6667-4.6667"/><path d="m21 11.6665 4.6667 2.6667"/><path d="m32.333 14.3335 8.6667-6"/><path clip-rule="evenodd" d="m44.333 9.6665c2.2091 0 4-1.79086 4-4s-1.7909-4-4-4-4 1.79086-4 4 1.7909 4 4 4z" fill-rule="evenodd"/><path clip-rule="evenodd" d="m29.0078 20.52c2.2092 0 4-1.7908 4-4 0-2.2091-1.7908-4-4-4-2.2091 0-4 1.7909-4 4 0 2.2092 1.7909 4 4 4z" fill-rule="evenodd"/><path clip-rule="evenodd" d="m17.0078 13.7998c2.2092 0 4-1.7909 4-4 0-2.20913-1.7908-4-4-4-2.2091 0-4 1.79087-4 4 0 2.2091 1.7909 4 4 4z" fill-rule="evenodd"/><path clip-rule="evenodd" d="m5.66699 24.3335c2.20914 0 4-1.7909 4-4s-1.79086-4-4-4-4 1.7909-4 4 1.79086 4 4 4z" fill-rule="evenodd"/></g></svg>