<svg fill="none" height="72" viewBox="0 0 73 72" width="73" xmlns="http://www.w3.org/2000/svg"><g stroke="#06f" stroke-linecap="round" stroke-linejoin="round" stroke-width="2.5"><path d="m35.708 15c-.557-.0003-1.1029-.1556-1.5766-.4487-.4737-.293-.8564-.7121-1.1054-1.2103l-2.844-5.682c-.249-.49824-.6317-.91734-1.1054-1.21034-.4737-.29301-1.0196-.44836-1.5766-.44866h-22.5c-.79565 0-1.55871.31607-2.12132.87868s-.87868 1.32567-.87868 2.12132v54c0 .7956.31607 1.5587.87868 2.1213s1.32567.8787 2.12132.8787h63c.7956 0 1.5587-.3161 2.1213-.8787s.8787-1.3257.8787-2.1213v-45c0-.7956-.3161-1.5587-.8787-2.1213s-1.3257-.8787-2.1213-.8787z"/><path d="m44 28.5 10.5 10.5-10.5 10.5"/><path d="m29 28.5-10.5 10.5 10.5 10.5"/></g></svg>