<svg fill="none" height="72" viewBox="0 0 73 72" width="73" xmlns="http://www.w3.org/2000/svg"><g stroke="#06f" stroke-linecap="round" stroke-linejoin="round" stroke-width="2.5"><path d="m65.4941 1.50293h-56.99996c-3.31371 0-6 2.68629-6 6v56.99997c0 3.3137 2.68629 6 6 6h56.99996c3.3137 0 6-2.6863 6-6v-56.99997c0-3.31371-2.6863-6-6-6z"/><path d="m8.5 40.4994h7.122c6.618 0 6.045-5.601 10.899-28.896.0703-.3375.2547-.6405.5221-.858.2675-.2175.6017-.3362.9464-.3362s.6789.1187.9464.3362c.2674.2175.4518.5205.5221.858l9.186 44.796c.0683.3343.2485.6354.5109.8535.2625.2181.5915.3402.9326.3462.3412.0059.6743-.1047.9441-.3135.2699-.2088.4605-.5035.5404-.8352l6.327-26.361c.0738-.3102.2446-.5887.4874-.7953.2429-.2065.5453-.3303.8633-.3534.318-.023.635.0558.9052.2251.2701.1694.4793.4203.5971.7166 2.229 5.574 3.12 10.623 8.31 10.623h6.438"/></g></svg>