<svg fill="none" height="72" viewBox="0 0 74 72" width="74" xmlns="http://www.w3.org/2000/svg"><g stroke="#06f" stroke-linecap="round" stroke-width="2.5"><path d="m2 27 4.4485 9 7.5515-6.0508" stroke-linejoin="round"/><path d="m72 47-4.4485-9-7.5515 6.0508" stroke-linejoin="round"/><path d="m10.6631 50.3586c3.8086 6.9528 10.3591 12.4003 18.6479 14.612 16.0676 4.2872 32.583-5.2079 36.8883-21.208.3647-1.3557.6302-2.7146.8007-4.0691m-4.1846-19.3188c-3.8874-6.3446-10.135-11.26979-17.9136-13.34528-16.0675-4.28719-32.5829 5.20788-36.88816 21.20798-.60072 2.2324-.93197 4.4736-1.01364 6.6891"/><g stroke-linejoin="round"><path clip-rule="evenodd" d="m31.4286 20h13.6943c.3788.0001.7421.1582 1.0099.4395l3.4487 3.621c.2678.2812.4184.6627.4185 1.0605v20.379c0 .8284-.6396 1.5-1.4286 1.5h-17.1428c-.789 0-1.4286-.6716-1.4286-1.5v-24c0-.8284.6396-1.5 1.4286-1.5z" fill-rule="evenodd"/><path d="m45 51h-17.5385c-.8072 0-1.4615-.6584-1.4615-1.4706v-23.5294"/><path d="m41 55h-17.5385c-.8072 0-1.4615-.6847-1.4615-1.5294v-24.4706"/></g></g></svg>