<svg fill="none" height="72" viewBox="0 0 74 72" width="74" xmlns="http://www.w3.org/2000/svg"><g stroke="#06f" stroke-linecap="round" stroke-width="2.5"><path d="m2 29 3.33637 7 5.66363-4.7062" stroke-linejoin="round"/><path d="m72 46-3.7071-7-6.2929 4.7062" stroke-linejoin="round"/><path d="m9.78523 50.8372c3.93547 7.1846 10.70437 12.8137 19.26947 15.0991 16.6032 4.4301 33.6691-5.3815 38.1179-21.9149.3769-1.4009.6512-2.8052.8274-4.2048m-4.3241-19.9627c-4.017-6.5561-10.4728-11.64548-18.5107-13.79017-16.6031-4.4301-33.669 5.38147-38.11778 21.91487-.62073 2.3069-.96303 4.6227-1.04742 6.9121"/><g clip-rule="evenodd" fill-rule="evenodd" stroke-linejoin="round"><path d="m50.0605 38.7826h3.4178c.8404 0 1.5217-.6813 1.5217-1.5217v-1.5218c0-.8404-.6813-1.5217-1.5217-1.5217h-3.4194c-.3103-1.5425-.8218-3.0374-1.5217-4.4465l2.418-2.4165c.594-.5943.594-1.5575 0-2.1518l-2.1578-2.1517c-.5943-.5941-1.5575-.5941-2.1518 0l-2.4195 2.418c-1.4079-.7001-2.902-1.2118-4.4435-1.5217v-3.4255c0-.8404-.6813-1.5217-1.5217-1.5217h-1.5218c-.8404 0-1.5217.6813-1.5217 1.5217v3.4224c-1.542.3101-3.0365.8216-4.445 1.5218l-2.4196-2.415c-.5942-.5941-1.5575-.5941-2.1517 0l-2.1533 2.1532c-.594.5943-.594 1.5575 0 2.1518l2.4196 2.418c-.6994 1.4088-1.211 2.9032-1.5218 4.445h-3.4239c-.8404 0-1.5217.6814-1.5217 1.5217v1.5218c0 .8404.6813 1.5217 1.5217 1.5217h3.4178c.3108 1.5418.8224 3.0362 1.5218 4.445l-2.4196 2.4196c-.594.5943-.594 1.5575 0 2.1518l2.1594 2.1517c.5942.5941 1.5575.5941 2.1517 0l2.4181-2.4196c1.4091.6998 2.904 1.2115 4.4465 1.5218v3.4239c0 .8404.6813 1.5217 1.5217 1.5217h1.5218c.8404 0 1.5217-.6813 1.5217-1.5217v-3.4164c1.5414-.3104 3.0354-.8221 4.4435-1.5217l2.4211 2.4181c.5942.594 1.5575.594 2.1517 0l2.1517-2.1518c.5941-.5942.5941-1.5575 0-2.1517l-2.418-2.4196c.7021-1.4109 1.2158-2.9079 1.5279-4.4526z"/><path d="m37.5 43c3.5899 0 6.5-2.9101 6.5-6.4999 0-3.59-2.9101-6.5001-6.5-6.5001-3.5898 0-6.5 2.9101-6.5 6.5001 0 3.5898 2.9102 6.4999 6.5 6.4999z"/></g></g></svg>