<svg fill="none" height="72" viewBox="0 0 72 72" width="72" xmlns="http://www.w3.org/2000/svg"><g stroke="#06f" stroke-linecap="round" stroke-linejoin="round" stroke-width="2.5"><path d="m38.5469 28.8962.885 2.904c.1461.4825.4699.8914.906 1.1442.436.2529.9518.3307 1.443.2178l2.943-.684c.558-.1253 1.1415-.0687 1.6651.1614.5235.2301.9597.6218 1.2447 1.1176.2849.4959.4037 1.0699.339 1.6382-.0647.5682-.3096 1.1008-.6988 1.5198l-2.061 2.223c-.3426.3709-.5329.8572-.5329 1.362 0 .5049.1903.9912.5329 1.362l2.061 2.223c.3892.4191.6341.9517.6988 1.5199.0647.5683-.0541 1.1423-.339 1.6382-.285.4958-.7212.8874-1.2447 1.1176-.5236.2301-1.1071.2867-1.6651.1613l-2.943-.684c-.4912-.1128-1.007-.035-1.443.2179-.4361.2528-.7599.6617-.906 1.1441l-.885 2.904c-.162.5508-.4979 1.0343-.9576 1.3783-.4596.3439-1.0183.5298-1.5924.5298s-1.1327-.1859-1.5924-.5298c-.4597-.344-.7956-.8275-.9576-1.3783l-.885-2.904c-.1461-.4824-.4699-.8913-.9059-1.1441-.4361-.2529-.9518-.3307-1.4431-.2179l-2.943.684c-.558.1254-1.1415.0688-1.665-.1613-.5236-.2302-.9597-.6218-1.2447-1.1176-.285-.4959-.4038-1.0699-.3391-1.6382.0648-.5682.3096-1.1008.6988-1.5199l2.061-2.223c.3426-.3708.5329-.8571.5329-1.362 0-.5048-.1903-.9911-.5329-1.362l-2.061-2.223c-.3892-.419-.634-.9516-.6988-1.5198-.0647-.5683.0541-1.1423.3391-1.6382.285-.4958.7211-.8875 1.2447-1.1176.5235-.2301 1.107-.2867 1.665-.1614l2.943.684c.4913.1129 1.007.0351 1.4431-.2178.436-.2528.7598-.6617.9059-1.1442l.885-2.904c.162-.5507.4979-1.0342.9576-1.3782.4597-.3439 1.0183-.5298 1.5924-.5298s1.1328.1859 1.5924.5298c.4597.344.7956.8275.9576 1.3782z"/><path d="m30.75 6.75c0 1.39239.5531 2.72774 1.5377 3.7123.9846.9846 2.3199 1.5377 3.7123 1.5377s2.7277-.5531 3.7123-1.5377c.9846-.98456 1.5377-2.31991 1.5377-3.7123s-.5531-2.72774-1.5377-3.71231-2.3199-1.53769-3.7123-1.53769-2.7277.55312-3.7123 1.53769-1.5377 2.31992-1.5377 3.71231z"/><path d="m46.5 22.5c-.595-2.3332-1.9501-4.4018-3.8515-5.8791-1.9013-1.4774-4.2406-2.2794-6.6485-2.2794s-4.7472.802-6.6485 2.2794c-1.9014 1.4773-3.2565 3.5459-3.8515 5.8791"/><path d="m54.75 54.75c0 .6894.1358 1.3721.3996 2.0091.2639.6369.6506 1.2157 1.1381 1.7032s1.0663.8742 1.7032 1.1381c.637.2638 1.3197.3996 2.0091.3996s1.3721-.1358 2.0091-.3996c.6369-.2639 1.2157-.6506 1.7032-1.1381s.8742-1.0663 1.1381-1.7032c.2638-.637.3996-1.3197.3996-2.0091s-.1358-1.3721-.3996-2.0091c-.2639-.6369-.6506-1.2157-1.1381-1.7032s-1.0663-.8742-1.7032-1.1381c-.637-.2638-1.3197-.3996-2.0091-.3996s-1.3721.1358-2.0091.3996c-.6369.2639-1.2157.6506-1.7032 1.1381s-.8742 1.0663-1.1381 1.7032c-.2638.637-.3996 1.3197-.3996 2.0091z"/><path d="m70.5 70.5c-.595-2.3332-1.9501-4.4018-3.8515-5.8791-1.9013-1.4774-4.2406-2.2794-6.6485-2.2794s-4.7472.802-6.6485 2.2794c-1.9014 1.4773-3.2565 3.5459-3.8515 5.8791"/><path d="m6.75 54.75c0 1.3924.55312 2.7277 1.53769 3.7123s2.31991 1.5377 3.71231 1.5377 2.7277-.5531 3.7123-1.5377 1.5377-2.3199 1.5377-3.7123-.5531-2.7277-1.5377-3.7123-2.3199-1.5377-3.7123-1.5377-2.72774.5531-3.71231 1.5377-1.53769 2.3199-1.53769 3.7123z"/><path d="m22.5 70.5c-.595-2.3332-1.9501-4.4018-3.8515-5.8791-1.9013-1.4774-4.2406-2.2794-6.6485-2.2794-2.40787 0-4.74715.802-6.64852 2.2794-1.90138 1.4773-3.25652 3.5459-3.85148 5.8791"/><path d="m45.1496 63c-5.9362 1.9992-12.3638 1.9992-18.3 0"/><path d="m48.7441 10.5c5.421 2.7162 9.8361 7.0881 12.6054 12.4821 2.7692 5.394 3.7488 11.5298 2.7967 17.5179"/><path d="m7.85401 40.5c-.95213-5.9888.02811-12.1253 2.79859-17.5194 2.7704-5.3942 7.1871-9.7657 12.6094-12.4806"/></g></svg>