<svg fill="none" height="74" viewBox="0 0 74 74" width="74" xmlns="http://www.w3.org/2000/svg"><g stroke="#06f" stroke-linecap="round" stroke-linejoin="round" stroke-width="2.5"><path d="m44 35h11"/><path d="m57 6h-1.6c-3.5346 0-6.4 3.26563-6.4 7.2942v47.4116c0 4.0284 2.8654 7.2942 6.4 7.2942h1.6"/><path d="m62 34.9999 2.8572 3.0001 7.1428-6"/><path d="m62 4.99994 2.8572 3.00006 7.1428-6"/><path d="m63 63 9 9"/><path d="m72 63-9 9"/><g clip-rule="evenodd" fill-rule="evenodd"><path d="m33.7781 36.913h3.6131c.8886 0 1.6088-.7202 1.6088-1.6086v-1.6088c0-.8884-.7202-1.6086-1.6088-1.6086h-3.6146c-.3281-1.6307-.8689-3.211-1.6087-4.7006l2.5562-2.5546c.628-.6283.628-1.6465 0-2.2748l-2.2811-2.2746c-.6283-.6281-1.6465-.6281-2.2748 0l-2.5578 2.5562c-1.4883-.7401-3.0678-1.2811-4.6974-1.6087v-3.6211c0-.8886-.7202-1.6088-1.6086-1.6088h-1.6088c-.8884 0-1.6086.7202-1.6086 1.6088v3.6178c-1.6302.3277-3.2101.8686-4.699 1.6088l-2.5579-2.553c-.6282-.6281-1.64648-.6281-2.27474 0l-2.27624 2.2762c-.62796.6283-.62796 1.6465 0 2.2748l2.55789 2.5562c-.73941 1.4892-1.2802 3.0691-1.60876 4.699h-3.61955c-.88846 0-1.6087.7202-1.6087 1.6086v1.6088c0 .8885.72024 1.6086 1.6087 1.6086h3.61318c.32842 1.6299.86936 3.2098 1.60862 4.699l-2.55774 2.5579c-.62811.6281-.62811 1.6465 0 2.2746l2.2826 2.2748c.62826.6279 1.64654.6279 2.27474 0l2.5563-2.5579c1.4896.7398 3.0699 1.2808 4.7006 1.6088v3.6194c0 .8886.7202 1.6088 1.6086 1.6088h1.6088c.8884 0 1.6086-.7202 1.6086-1.6088v-3.6115c1.6295-.3282 3.2088-.869 4.6974-1.6086l2.5595 2.5561c.6282.6282 1.6465.6282 2.2747 0l2.2746-2.2746c.628-.6282.628-1.6465 0-2.2747l-2.5562-2.5578c.7422-1.4915 1.2854-3.0741 1.6151-4.7071z"/><path d="m21 41c3.866 0 7-3.134 7-7s-3.134-7-7-7-7 3.134-7 7 3.134 7 7 7z"/></g></g></svg>