<svg fill="none" height="72" viewBox="0 0 72 72" width="72" xmlns="http://www.w3.org/2000/svg"><g stroke="#06f" stroke-linecap="round" stroke-linejoin="round" stroke-width="2.5"><path d="m50.5713 21.4284 8.7428-8.7429"/><path d="m64.1713 13.6571c3.2191 0 5.8286-2.6095 5.8286-5.82853s-2.6095-5.82857-5.8286-5.82857c-3.219 0-5.8285 2.60954-5.8285 5.82857s2.6095 5.82853 5.8285 5.82853z"/><path d="m53.4854 53.4863 5.8285 5.8286"/><path d="m64.1713 70.0009c3.2191 0 5.8286-2.6095 5.8286-5.8286 0-3.219-2.6095-5.8285-5.8286-5.8285-3.219 0-5.8285 2.6095-5.8285 5.8285 0 3.2191 2.6095 5.8286 5.8285 5.8286z"/><path d="m21.4284 21.4284-8.7429-8.7429"/><path d="m7.82857 13.6571c3.21903 0 5.82853-2.6095 5.82853-5.82853s-2.6095-5.82857-5.82853-5.82857-5.82857 2.60954-5.82857 5.82857 2.60954 5.82853 5.82857 5.82853z"/><path d="m18.5141 53.4863-5.8286 5.8286"/><path d="m7.82857 70.0009c3.21903 0 5.82853-2.6095 5.82853-5.8286 0-3.219-2.6095-5.8285-5.82853-5.8285s-5.82857 2.6095-5.82857 5.8285c0 3.2191 2.60954 5.8286 5.82857 5.8286z"/><path d="m49.6006 34.0566h8.7428"/><path d="m64.1713 39.8857c3.2191 0 5.8286-2.6096 5.8286-5.8286s-2.6095-5.8286-5.8286-5.8286c-3.219 0-5.8285 2.6096-5.8285 5.8286s2.6095 5.8286 5.8285 5.8286z"/><path d="m22.4001 34.0566h-8.7429"/><path d="m7.82857 39.8857c3.21903 0 5.82853-2.6096 5.82853-5.8286s-2.6095-5.8286-5.82853-5.8286-5.82857 2.6096-5.82857 5.8286 2.60954 5.8286 5.82857 5.8286z"/><path d="m22.3994 49.6c0-3.607 1.4329-7.0662 3.9834-9.6167 2.5505-2.5504 6.0097-3.9833 9.6166-3.9833 3.607 0 7.0662 1.4329 9.6167 3.9833 2.5505 2.5505 3.9833 6.0097 3.9833 9.6167z"/><path d="m35.9999 33.0866c4.2921 0 7.7715-3.6969 7.7715-8.2572s-3.4794-8.2571-7.7715-8.2571c-4.292 0-7.7714 3.6968-7.7714 8.2571s3.4794 8.2572 7.7714 8.2572z"/></g></svg>