<svg fill="none" height="75" viewBox="0 0 74 75" width="74" xmlns="http://www.w3.org/2000/svg"><g stroke="#06f" stroke-linecap="round" stroke-linejoin="round" stroke-width="2.5"><path d="m65.913 3h-57.82604c-3.36174 0-6.08696 2.68629-6.08696 6v58c0 3.3137 2.72522 6 6.08696 6h57.82604c3.3618 0 6.087-2.6863 6.087-6v-58c0-3.31371-2.7252-6-6.087-6z"/><path d="m2 17h70"/><path d="m37 2v70"/><path d="m15 48v-9.1c0-1.0343.4214-2.0263 1.1716-2.7577.7501-.7314 1.7675-1.1423 2.8284-1.1423s2.0783.4109 2.8284 1.1423c.7502.7314 1.1716 1.7234 1.1716 2.7577v9.1"/><path d="m15 43h8"/><path d="m57 38c0 .7956-.3688 1.5587-1.0251 2.1213-.6564.5626-1.5466.8787-2.4749.8787h-3.5v-6h3.5c.9283 0 1.8185.3161 2.4749.8787.6563.5626 1.0251 1.3257 1.0251 2.1213z"/><path d="m57 44.5c0 .9283-.3688 1.8185-1.0251 2.4749-.6564.6563-1.5466 1.0251-2.4749 1.0251h-3.5v-7h3.5c.9283 0 1.8185.3688 2.4749 1.0251.6563.6564 1.0251 1.5466 1.0251 2.4749z"/></g></svg>