<svg fill="none" height="74" viewBox="0 0 74 74" width="74" xmlns="http://www.w3.org/2000/svg"><g stroke="#06f" stroke-linecap="round" stroke-linejoin="round" stroke-width="2.5"><path d="m11 54v-7.4999c0-.3979.1712-.7794.4759-1.0607.3047-.2814.7181-.4394 1.149-.4394h48.7502c.4309 0 .8443.158 1.149.4394.3047.2813.4759.6628.4759 1.0607v7.4999"/><path d="m37 35v19"/><path d="m11 72c4.9705 0 9-4.0294 9-9 0-4.9705-4.0295-9-9-9-4.97054 0-9 4.0295-9 9 0 4.9706 4.02946 9 9 9z"/><path d="m37 72c4.9705 0 9-4.0294 9-9 0-4.9705-4.0295-9-9-9s-9 4.0295-9 9c0 4.9706 4.0295 9 9 9z"/><path d="m62.9999 72c4.9707 0 9.0001-4.0294 9.0001-9 0-4.9705-4.0294-9-9.0001-9-4.9705 0-8.9999 4.0295-8.9999 9 0 4.9706 4.0294 9 8.9999 9z"/><path d="m29 30h16"/><path d="m37 24v6"/><path d="m47.3487 2c1.2331 0 2.4157.49675 3.2876 1.38078.872.88415 1.3618 2.08324 1.3618 3.33356v12.29476c.0358 1.2869-.4338 2.5356-1.3056 3.4715-.8719.9359-2.0746 1.4824-3.3438 1.5194h-21.6976c-1.2683-.0379-2.47-.5842-3.3417-1.5192-.8716-.935-1.3419-2.1824-1.3077-3.4685v-12.29796c0-1.25032.4899-2.44941 1.3618-3.33356.872-.88403 2.0546-1.38078 3.2876-1.38078z"/></g></svg>