<svg fill="none" height="74" viewBox="0 0 74 74" width="74" xmlns="http://www.w3.org/2000/svg"><g stroke="#06f" stroke-linecap="round" stroke-linejoin="round" stroke-width="2.5"><path d="m64.5 11c4.1421 0 7.5-2.01479 7.5-4.50002 0-2.48527-3.3579-4.49998-7.5-4.49998s-7.5 2.01471-7.5 4.49998c0 2.48523 3.3579 4.50002 7.5 4.50002z"/><path d="m72 7v8.6667c0 2.392-3.357 4.3333-7.5 4.3333-4.1429 0-7.5-1.9384-7.5-4.3333v-8.6667"/><path d="m9.49994 11c4.14216 0 7.50006-2.01479 7.50006-4.50002 0-2.48527-3.3579-4.49998-7.50006-4.49998-4.14208 0-7.49994 2.01471-7.49994 4.49998 0 2.48523 3.35786 4.50002 7.49994 4.50002z"/><path d="m17 7v8.6667c0 2.392-3.3571 4.3333-7.50006 4.3333-4.14295 0-7.49994-1.9384-7.49994-4.3333v-8.6667"/><path d="m64.5 63c4.1421 0 7.5-2.0147 7.5-4.4999 0-2.4854-3.3579-4.5001-7.5-4.5001s-7.5 2.0147-7.5 4.5001c0 2.4852 3.3579 4.4999 7.5 4.4999z"/><path d="m72 58v9.3334c0 2.576-3.357 4.6666-7.5 4.6666-4.1429 0-7.5-2.0906-7.5-4.6666v-9.3334"/><path d="m9.49994 63c4.14216 0 7.50006-2.0147 7.50006-4.4999 0-2.4854-3.3579-4.5001-7.50006-4.5001-4.14208 0-7.49994 2.0147-7.49994 4.5001 0 2.4852 3.35786 4.4999 7.49994 4.4999z"/><path d="m17 58v9.3334c0 2.576-3.3571 4.6666-7.50006 4.6666-4.14295 0-7.49994-2.0875-7.49994-4.6666v-9.3334"/><path d="m17 17 4 5"/><path d="m57 17-4 5"/><path d="m17 57 4-5"/><path d="m57 57-4-5"/><path d="m37 32c9.3889 0 17-3.3579 17-7.4999 0-4.1422-7.6111-7.5001-17-7.5001s-17 3.3579-17 7.5001c0 4.142 7.6111 7.4999 17 7.4999z"/><path d="m54 37c0 4.4191-7.6129 8-17 8s-17-3.5777-17-8"/><path d="m20 25v24.381c0 4.2088 7.6129 7.619 17 7.619s17-3.4102 17-7.619v-24.381"/></g></svg>