<svg fill="none" height="72" viewBox="0 0 72 72" width="72" xmlns="http://www.w3.org/2000/svg"><g stroke="#06f" stroke-linecap="round" stroke-linejoin="round" stroke-width="2.5"><path d="m64.5 10.5029h-60c-1.65685 0-3 1.3432-3 3v54c0 1.6569 1.34315 3 3 3h60c1.6569 0 3-1.3431 3-3v-54c0-1.6568-1.3431-3-3-3z"/><path d="m10.5 4.50293v8.99997"/><path d="m22.5 4.50293v8.99997"/><path d="m34.5 4.50293v8.99997"/><path d="m46.5 4.50293v8.99997"/><path d="m58.5 4.50293v8.99997"/><path d="m37.5 25.5h9v12h-12v-9c0-.7956.3161-1.5587.8787-2.1213s1.3257-.8787 2.1213-.8787z"/><path d="m46.5 25.5h9c.7956 0 1.5587.3161 2.1213.8787s.8787 1.3257.8787 2.1213v9h-12z"/><path d="m46.5 37.5029h-12v12h12z"/><path d="m58.5 37.5029h-12v12h12z"/><path d="m46.5 49.5029h-12v12h12z"/><path d="m46.5 49.5h12v9c0 .7956-.3161 1.5587-.8787 2.1213s-1.3257.8787-2.1213.8787h-9z"/><path d="m13.5 37.5h9v12h-12v-9c0-.7956.3161-1.5587.8787-2.1213s1.3257-.8787 2.1213-.8787z"/><path d="m34.5 37.5029h-12v12h12z"/><path d="m10.5 49.5h12v12h-9c-.7956 0-1.5587-.3161-2.1213-.8787s-.8787-1.3257-.8787-2.1213z"/><path d="m34.5 49.5029h-12v12h12z"/></g></svg>