<svg fill="none" height="50" viewBox="0 0 50 50" width="50" xmlns="http://www.w3.org/2000/svg"><g stroke="#06f" stroke-linecap="round" stroke-linejoin="round" stroke-width="2"><path d="m7.66699 36.3333v-5c0-.2653.11412-.5196.31727-.7071.20316-.1876.47874-.2929.76603-.2929h32.50011c.2873 0 .5628.1053.766.2929.2031.1875.3173.4418.3173.7071v5"/><path d="m25 23.6667v12.6667"/><path d="m7.66698 48.3333c3.31372 0 6.00002-2.6863 6.00002-6s-2.6863-6-6.00002-6c-3.31368 0-5.99999 2.6863-5.99999 6s2.68631 6 5.99999 6z"/><path d="m25 48.3333c3.3137 0 6-2.6863 6-6s-2.6863-6-6-6-6 2.6863-6 6 2.6863 6 6 6z"/><path d="m42.333 48.3333c3.3137 0 6-2.6863 6-6s-2.6863-6-6-6-6 2.6863-6 6 2.6863 6 6 6z"/><path d="m19.667 20.3333h10.6667"/><path d="m25 16.3333v4"/><path d="m31.8988 1.66675c.8221 0 1.6105.33117 2.1917.92052.5814.58943.9079 1.38883.9079 2.22237v8.19656c.0239.8579-.2892 1.6904-.8704 2.3143-.5813.6239-1.3831.9882-2.2292 1.0129h-14.465c-.8456-.0252-1.6468-.3894-2.2278-1.0128-.5811-.6233-.8946-1.4549-.8718-2.3123v-8.19866c0-.83354.3265-1.63294.9078-2.22237.5813-.58935 1.3697-.92052 2.1918-.92052z"/></g></svg>