<svg width="48" height="48" viewBox="0 0 48 48" fill="none" xmlns="http://www.w3.org/2000/svg">
<path fill-rule="evenodd" clip-rule="evenodd" d="M24 43.4838C24 43.4838 28.612 36.4598 44.034 35.9018C45.1225 35.877 45.9938 34.9907 46 33.9018V6.52185C46.0001 5.98476 45.7842 5.47021 45.4008 5.09403C45.0175 4.71784 44.499 4.51164 43.962 4.52185C28.6 5.09785 24 12.1018 24 12.1018C24 12.1018 19.4 5.10185 4.038 4.52185C3.50101 4.51164 2.98249 4.71784 2.59916 5.09403C2.21583 5.47021 1.9999 5.98476 2 6.52185V33.9038C2.00621 34.9927 2.87746 35.879 3.966 35.9038C19.388 36.4598 24 43.4838 24 43.4838Z" stroke="#0066FF" stroke-width="2" stroke-linecap="round" stroke-linejoin="round"/>
<path d="M24.1667 28.6665C24.0746 28.6665 24 28.7411 24 28.8332C24 28.9252 24.0746 28.9998 24.1667 28.9998C24.2587 28.9998 24.3333 28.9252 24.3333 28.8332C24.3333 28.7411 24.2587 28.6665 24.1667 28.6665" stroke="#0066FF" stroke-width="2" stroke-linecap="round" stroke-linejoin="round"/>
<path d="M24 25.3335V21.3335" stroke="#0066FF" stroke-width="2" stroke-linecap="round" stroke-linejoin="round"/>
<path fill-rule="evenodd" clip-rule="evenodd" d="M25.2103 16.6992C24.9717 16.2688 24.5064 16 23.9999 16C23.4934 16 23.0281 16.2688 22.7895 16.6992L15.4866 30.1036C15.2672 30.5053 15.2842 30.9888 15.5314 31.3753C15.7811 31.7643 16.2223 32.0007 16.697 32H31.3028C31.7772 32.0008 32.2182 31.7649 32.4684 31.3767C32.7156 30.9902 32.7327 30.5067 32.5132 30.105L25.2103 16.6992Z" stroke="#0066FF" stroke-width="2" stroke-linecap="round" stroke-linejoin="round"/>
</svg>
