<svg fill="none" height="74" viewBox="0 0 74 74" width="74" xmlns="http://www.w3.org/2000/svg"><g stroke="#06f" stroke-linecap="round" stroke-linejoin="round" stroke-width="2.5"><path d="m49 64v8"/><path d="m26 9v8"/><path d="m53 68h-8"/><path d="m30 13h-8"/><path d="m71.9865 43.0001h-5.64c-1.9127-.0141-3.6066 1.1758-4.1609 2.9232-.5546 1.7473.1629 3.6344 1.7622 4.6355l6.1045 3.8824c1.5963.9994 2.3142 2.8814 1.765 4.6264-.5491 1.745-2.2348 2.9379-4.1438 2.9324h-5.6399"/><path d="m67 43v-3"/><path d="m67 65v-3"/><path d="m11.9764 5.00006h-5.64004c-1.91069-.00991-3.60056 1.18152-4.15224 2.92775-.55182 1.74609.16579 3.63059 1.76352 4.63099l6.10456 3.8823c1.5978 1.0004 2.3155 2.8849 1.7637 4.631-.5518 1.7462-2.24155 2.9376-4.15238 2.9278h-5.64007"/><path d="m7 5v-3"/><path d="m7 27v-3"/><path clip-rule="evenodd" d="m21.5035 63.5889c-3.31 3.2076-13.5035 3.4111-13.5035 3.4111s.76673-9.3418 4.0734-12.5463c3.3067-3.2042 6.7535-.3229 8.2501 1.1404 1.4967 1.4633 4.4868 4.7872 1.18 7.9948z" fill-rule="evenodd"/><path d="m27 36 13 12"/><path d="m61 15 3-3"/><path clip-rule="evenodd" d="m61.9566 27.3264-1.1353-12.1757-12.4728-1.1083c-3.6419-.3393-7.1628 1.3793-9.07 4.4269l-19.2785 27.6736 4.5382 4.4269 4.535 4.4302 28.3485-18.8195c3.1219-1.8617 4.8824-5.2989 4.5349-8.8541z" fill-rule="evenodd"/><path d="m27 35.6694-3.2485-1.2642c-2.221-.8651-4.7341-.3194-6.4153 1.393l-5.8942 6.0045c-.3932.3997-.5382.9875-.3776 1.5291.1607.5415.6012.9492 1.146 1.0604l7.892 1.6078"/><path d="m40.1915 48 1.3695 3.4508c.9372 2.3595.3461 5.0291-1.5091 6.8152l-6.5048 6.2645c-.4332.4176-1.0698.5718-1.6566.401-.5866-.1706-1.0282-.6385-1.1487-1.2173l-1.7418-8.3868"/><path clip-rule="evenodd" d="m48.5 32c2.4853 0 4.5-2.0148 4.5-4.5 0-2.4853-2.0147-4.5-4.5-4.5s-4.5 2.0147-4.5 4.5c0 2.4852 2.0147 4.5 4.5 4.5z" fill-rule="evenodd"/></g></svg>