<svg fill="none" height="48" viewBox="0 0 48 48" width="48" xmlns="http://www.w3.org/2000/svg" xmlns:xlink="http://www.w3.org/1999/xlink"><clipPath id="a"><path d="m0 0h48v48h-48z"/></clipPath><g clip-path="url(#a)" stroke="#06f" stroke-linecap="round" stroke-linejoin="round" stroke-width="2"><path d="m33 12.998h-18c-1.1046 0-2 .8955-2 2v18c0 1.1046.8954 2 2 2h18c1.1046 0 2-.8954 2-2v-18c0-1.1045-.8954-2-2-2z"/><path d="m39 8.99805 8-8.000003"/><path d="m1 46.998 8-8"/><path d="m11 46.998h-10v-10"/><path d="m47 10.998v-9.999953h-10"/><path d="m39 38.9941 8 8.004"/><path d="m1 .998047 8 8.000003"/><path d="m1 10.998v-9.999953h10"/><path d="m37 46.998h10v-10"/></g></svg>