<svg fill="none" height="72" viewBox="0 0 72 72" width="72" xmlns="http://www.w3.org/2000/svg"><g stroke="#06f" stroke-linecap="round" stroke-linejoin="round" stroke-width="2.5"><path d="m36.27 1.49966c2.0361-.03784 4.0585.3393 5.9442 1.10846 1.8856.76915 3.5948 1.9142 5.0235 3.36537s2.547 3.17806 3.2866 5.07541c.7397 1.8974 1.0853 3.9255 1.0157 5.9608 0 7.68-10.53 24-14.1 28.86-.129.1918-.3032.3489-.5072.4576-.2041.1086-.4317.1655-.6628.1655-.2312 0-.4588-.0569-.6628-.1655-.204-.1087-.3782-.2658-.5072-.4576-3.57-4.89-14.1-21.18-14.1-28.86-.0696-2.0353.2759-4.0634 1.0156-5.9608.7397-1.89735 1.8579-3.62424 3.2866-5.07541s3.138-2.59622 5.0236-3.36537c1.8856-.76916 3.9081-1.1463 5.9442-1.10846z"/><path d="m42 16.7698c0 1.1333-.336 2.2411-.9656 3.1834-.6297.9423-1.5246 1.6767-2.5716 2.1104s-2.1991.5472-3.3106.3261-2.1325-.7668-2.9339-1.5682c-.8013-.8013-1.3471-1.8223-1.5682-2.9338s-.1076-2.2637.3261-3.3107 1.1681-1.9419 2.1104-2.5715 2.0502-.9657 3.1834-.9657c1.5173.0079 2.9702.6141 4.0431 1.687 1.0728 1.0729 1.6791 2.5257 1.6869 4.043z"/><path d="m56.9995 13.5h5.13c.7463-.0037 1.4672.2709 2.0219.7701.5548.4993.9035 1.1874.9781 1.9299l5.34 51c.0429.4161-.0016.8365-.1308 1.2343-.1291.3978-.3401.7643-.6192 1.0757-.2805.3108-.6229.5595-1.0052.73-.3824.1705-.7962.2591-1.2148.26h-62.99999c-.41863-.0009-.83242-.0895-1.21476-.26s-.72476-.4192-1.00524-.73c-.27913-.3114-.49005-.6779-.61921-1.0757s-.17371-.8182-.13079-1.2343l5.34-51c.07462-.7425.42335-1.4306.97807-1.9299.55473-.4992 1.27563-.7738 2.02193-.7701h5.12999"/><path d="m3.05957 52.5h65.88003"/><path d="m54 31.5h12.72"/><path d="m5.28027 31.5h12.72003"/><path d="m21 70.5 2.04-31.5"/><path d="m51.54 70.5-2.04-31.5"/></g></svg>