<svg fill="none" height="49" viewBox="0 0 49 49" width="49" xmlns="http://www.w3.org/2000/svg"><g stroke="#06f" stroke-linecap="round" stroke-linejoin="round" stroke-width="2"><path d="m4.33301 35h17.99999"/><path d="m6 11.6665h37.6667"/><path d="m22.333 23.6665h-19.99999"/><path d="m23.6004 47.6665c-4.2258-.2319-8.3073-1.6046-11.8031-3.9697-3.49588-2.3651-6.27319-5.6327-8.0316-9.4493-1.75841-3.8168-2.43106-8.0375-1.94522-12.2058.48585-4.1683 2.1117-8.1255 4.70181-11.4441 2.59004-3.31849 6.04581-5.87188 9.99361-7.38418 3.9478-1.51229 8.2375-1.92589 12.4052-1.19609s8.055 2.57525 11.2415 5.3368c3.1864 2.76157 5.5509 6.33407 6.8377 10.33147"/><path d="m23.443 1.6665c-12.2945 13.0238-12.0712 29.9707.2233 46"/><path d="m26.333 1.6665c4.0514 4.43736 6.8246 9.9836 8 16"/><path d="m37.3333 46.3332c5.707 0 10.3334-4.6264 10.3334-10.3334 0-5.7069-4.6264-10.3333-10.3334-10.3333-5.7069 0-10.3333 4.6264-10.3333 10.3333 0 5.707 4.6264 10.3334 10.3333 10.3334z"/><path d="m43 31.6665-6.297 8.0444c-.14.1784-.3183.3259-.523.4326s-.4308.17-.6632.1858c-.2324.0157-.4657-.0165-.684-.0945s-.4165-.2-.5814-.3578l-3.2514-3.1147"/></g></svg>