<svg fill="none" height="74" viewBox="0 0 74 74" width="74" xmlns="http://www.w3.org/2000/svg"><g stroke="#06f" stroke-width="2.5"><path d="m22 72h31" stroke-linecap="round" stroke-linejoin="round"/><path d="m37 56v15" stroke-linecap="round" stroke-linejoin="round"/><path d="m65.7722 2h-57.54439c-3.43952 0-6.22781 2.76894-6.22781 6.1846v41.6308c0 3.4157 2.78829 6.1846 6.22781 6.1846h57.54439c3.4395 0 6.2278-2.7689 6.2278-6.1846v-41.6308c0-3.41566-2.7883-6.1846-6.2278-6.1846z"/><g stroke-linecap="round" stroke-linejoin="round"><path d="m54 17-16.4286 17-6.5714-6.8"/><path d="m52 28.5028c-.0006 3.1527-1.0642 6.2193-3.0296 8.7353-1.9655 2.5159-4.7256 4.3441-7.8623 5.2075-3.1368.8634-6.4791.7151-9.5208-.4226-3.0417-1.1376-5.6169-3.2026-7.3356-5.882-1.7187-2.6795-2.4871-5.8274-2.1888-8.9669.2982-3.1395 1.6468-6.0995 3.8415-8.4316s5.1159-3.9091 8.3211-4.4923c3.2051-.5831 6.5196-.1406 9.4412 1.2606"/></g></g></svg>