<svg fill="none" height="48" viewBox="0 0 49 48" width="49" xmlns="http://www.w3.org/2000/svg"><g stroke="#06f" stroke-linecap="round" stroke-linejoin="round" stroke-width="2"><path d="m1.0083 46.5h46"/><path d="m9 46.5v-5c0-.2652-.10536-.5196-.29289-.7071-.18754-.1875-.44189-.2929-.70711-.2929h-4c-.26522 0-.51957.1054-.70711.2929-.18753.1875-.29289.4419-.29289.7071v5"/><path d="m21 46.5v-13c0-.2652-.1054-.5196-.2929-.7071s-.4419-.2929-.7071-.2929h-4c-.2652 0-.5196.1054-.7071.2929s-.2929.4419-.2929.7071v13"/><path d="m33 46.5v-21c0-.2652-.1054-.5196-.2929-.7071s-.4419-.2929-.7071-.2929h-4c-.2652 0-.5196.1054-.7071.2929s-.2929.4419-.2929.7071v21"/><path d="m45 46.5v-29c0-.2652-.1054-.5196-.2929-.7071s-.4419-.2929-.7071-.2929h-4c-.2652 0-.5196.1054-.7071.2929s-.2929.4419-.2929.7071v29"/><path d="m6.0083 26.5 36-24"/><path d="m41.0083 10.5 1-8-8-1"/></g></svg>