<svg fill="none" height="72" viewBox="0 0 72 72" width="72" xmlns="http://www.w3.org/2000/svg"><g stroke="#06f" stroke-linecap="round" stroke-linejoin="round" stroke-width="2.5"><path d="m46.5391 20.3525h1.563c.4145 0 .8121.1647 1.1052.4578.2931.2932.4578.6907.4578 1.1052v10.941"/><path d="m46.5391 32.8564h6.252"/><path d="m63.2373 1.46631h1.563c.2053 0 .4085.04043.5981.11897.1897.07855.362.19368.5071.33882s.2603.31744.3388.50707c.0786.18964.119.39288.119.59814v10.94099"/><path d="m63.2373 13.9717h6.252"/><path d="m63.2373 39.2344h1.563c.2053 0 .4085.0404.5981.119.1897.0785.362.1936.5071.3388.1451.1451.2603.3174.3388.507.0786.1897.119.3929.119.5982v10.941"/><path d="m63.2373 51.7383h6.252"/><path d="m70.272 28.9476c0 .5131-.101 1.0212-.2974 1.4953s-.4842.9048-.847 1.2677c-.3629.3628-.7937.6507-1.2677.847-.4741.1964-.9822.2975-1.4954.2975-.5131 0-1.0212-.1011-1.4953-.2975-.4741-.1963-.9048-.4842-1.2677-.847-.3628-.3629-.6507-.7936-.847-1.2677-.1964-.4741-.2975-.9822-.2975-1.4953v-4.689c0-1.0364.4117-2.0302 1.1445-2.763s1.7267-1.1445 2.763-1.1445c1.0364 0 2.0303.4117 2.7631 1.1445s1.1444 1.7266 1.1444 2.763z"/><path d="m53.5705 47.8322c0 1.0343-.4109 2.0263-1.1423 2.7577s-1.7234 1.1423-2.7577 1.1423-2.0263-.4109-2.7577-1.1423-1.1423-1.7234-1.1423-2.7577v-4.689c0-.5122.1009-1.0193.2969-1.4925s.4832-.9031.8454-1.2653c.3621-.3621.7921-.6494 1.2652-.8454.4732-.196.9803-.2968 1.4925-.2968s1.0193.1008 1.4925.2968c.4731.196.9031.4833 1.2652.8454.3622.3622.6494.7921.8454 1.2653s.2969.9803.2969 1.4925z"/><path d="m63.2373 57.9624h1.563c.2053 0 .4085.0404.5981.119.1897.0785.362.1937.5071.3388s.2603.3174.3388.5071c.0786.1896.119.3928.119.5981v10.941"/><path d="m63.2373 70.4663h6.252"/><path d="m53.5705 66.5617c0 1.0343-.4109 2.0263-1.1423 2.7577s-1.7234 1.1423-2.7577 1.1423-2.0263-.4109-2.7577-1.1423-1.1423-1.7234-1.1423-2.7577v-4.689c0-.5122.1009-1.0193.2969-1.4925s.4832-.9031.8454-1.2653c.3621-.3621.7921-.6494 1.2652-.8454.4732-.196.9803-.2968 1.4925-.2968s1.0193.1008 1.4925.2968c.4731.196.9031.4833 1.2652.8454.3622.3622.6494.7921.8454 1.2653s.2969.9803.2969 1.4925z"/><path d="m53.5705 10.3527c0 1.0344-.4109 2.0264-1.1423 2.7578-.7314.7313-1.7234 1.1422-2.7577 1.1422s-2.0263-.4109-2.7577-1.1422c-.7314-.7314-1.1423-1.7234-1.1423-2.7578v-4.69196c0-1.03434.4109-2.02632 1.1423-2.75771.7314-.7314 1.7234-1.14229 2.7577-1.14229s2.0263.41089 2.7577 1.14229c.7314.73139 1.1423 1.72337 1.1423 2.75771z"/><path d="m28.6592 51.7837c0-2.5859-1.0272-5.0658-2.8557-6.8943s-4.3084-2.8557-6.8943-2.8557c-.156 0-.3.039-.459.045"/><path d="m27.6443 13.2002c1.0466-.3529 1.9755-.9879 2.6844-1.8349.7088-.8471 1.1701-1.87333 1.333-2.96575.1629-1.09243.0211-2.20862-.4098-3.22561s-1.1342-1.89531-2.0323-2.53819-1.9563-1.02538-3.0579-1.10535-2.2039.14568-3.1855.65211c-.9815.50642-1.8042 1.27396-2.3775 2.21805s-.8748 2.0281-.8714 3.1326c.0085.54152.0902 1.07941.243 1.599-.333-.03-.654-.099-.993-.099-2.1001-.01025-4.1608.57041-5.9467 1.67564-1.7858 1.1053-3.22475 2.6905-4.15245 4.5747s-1.30673 3.9913-1.0938 6.0807c.21293 2.0893 1.00925 4.0767 2.29795 5.735-2.26358.1553-4.38383 1.164-5.93232 2.8224-1.54849 1.6583-2.40975 3.8426-2.40975 6.1116 0 2.2689.86126 4.4532 2.40975 6.1116 1.54849 1.6583 3.66874 2.6671 5.93232 2.8224-1.2887 1.6583-2.08502 3.6456-2.29795 5.735-.21293 2.0893.1661 4.1964 1.0938 6.0806s2.36665 3.4695 4.15245 4.5747c1.7859 1.1052 3.8466 1.6859 5.9467 1.6757.339 0 .66-.072.993-.102-.3201 1.1303-.3013 2.3298.054 3.4496.3554 1.1198 1.0316 2.1107 1.9449 2.8496.9134.739 2.0235 1.1936 3.1928 1.3074s2.3463-.1181 3.385-.6671 1.8933-1.3908 2.4579-2.4211c.5647-1.0303.8144-2.2036.7183-3.3745-.0962-1.1709-.5339-2.2878-1.259-3.2122-.7251-.9243-1.7056-1.6155-2.8199-1.9877"/><path d="m18.4502 30.0004c.156 0 .3.045.459.045 1.2804 0 2.5482-.2522 3.7312-.7422 1.1829-.4899 2.2577-1.2081 3.1631-2.1135s1.6235-1.9802 2.1135-3.1631.7422-2.4508.7422-3.7312"/><path d="m31.7227 7.24252c1.3675-.79081 2.9202-1.20488 4.5-1.2"/><path d="m31.4551 66.3237c1.4658.7924 3.1067 1.205 4.773 1.2"/><path d="m36.2285 21.0337v31.5"/></g></svg>