<svg fill="none" height="72" viewBox="0 0 72 72" width="72" xmlns="http://www.w3.org/2000/svg"><g stroke="#06f" stroke-linecap="round" stroke-linejoin="round" stroke-width="2.5"><path d="m3 36c0 8.7521 3.47678 17.1458 9.6655 23.3345 6.1887 6.1887 14.5824 9.6655 23.3345 9.6655s17.1458-3.4768 23.3345-9.6655 9.6655-14.5824 9.6655-23.3345-3.4768-17.1458-9.6655-23.3345c-6.1887-6.18872-14.5824-9.6655-23.3345-9.6655s-17.1458 3.47678-23.3345 9.6655c-6.18872 6.1887-9.6655 14.5824-9.6655 23.3345z"/><path d="m52.9707 48.7287c.5624-.5626.8783-1.3255.8783-2.121s-.3159-1.5584-.8783-2.121l-8.487-8.487 8.487-8.484c.5624-.5626.8783-1.3255.8783-2.121s-.3159-1.5584-.8783-2.121l-4.245-4.242c-.5626-.5624-1.3255-.8784-2.121-.8784s-1.5584.316-2.121.8784l-8.484 8.487-8.484-8.487c-.5626-.5624-1.3255-.8784-2.121-.8784s-1.5584.316-2.121.8784l-4.242 4.242c-.5624.5626-.8784 1.3255-.8784 2.121s.316 1.5584.8784 2.121l8.484 8.484-8.484 8.487c-.5624.5626-.8784 1.3255-.8784 2.121s.316 1.5584.8784 2.121l4.242 4.245c.5626.5624 1.3255.8783 2.121.8783s1.5584-.3159 2.121-.8783l8.484-8.49 8.484 8.49c.5626.5624 1.3255.8783 2.121.8783s1.5584-.3159 2.121-.8783z"/></g></svg>