<svg fill="none" height="74" viewBox="0 0 74 74" width="74" xmlns="http://www.w3.org/2000/svg"><g stroke="#06f" stroke-linecap="round" stroke-linejoin="round" stroke-width="2.5"><path d="m17 72h16"/><path d="m25 66v6"/><path d="m26 32v-8.4615c-.0004-1.5154.2991-3.016.8815-4.4161.5823-1.4001 1.4361-2.6722 2.5125-3.7438 1.0764-1.0715 2.3543-1.9214 3.7608-2.5011 1.4064-.5797 2.9139-.8779 4.4361-.8775h5.4091"/><path d="m32 27-6 6-6-6"/><path d="m38.8 35h4.6c1.22 0 2.39.4899 3.2527 1.362.8627.872 1.3473 2.0547 1.3473 3.288v21.7c0 1.2333-.4846 2.416-1.3473 3.288-.8627.8721-2.0327 1.362-3.2527 1.362h-36.8c-1.22 0-2.39002-.4899-3.25269-1.362-.86267-.872-1.34731-2.0547-1.34731-3.288v-21.7c0-1.2333.48464-2.416 1.34731-3.288.86267-.8721 2.03269-1.362 3.25269-1.362h4.6"/><path d="m41 24.857c.8113.7386 1.8631 1.1458 2.9524 1.143h23.619c1.1746 0 2.301-.4741 3.1315-1.318s1.2971-1.9885 1.2971-3.182v-15c0-1.19348-.4666-2.33807-1.2971-3.18198s-1.9569-1.31802-3.1315-1.31802h-23.619"/><path d="m51 32h8"/><path d="m55 26v6"/><path d="m40 7 4 5-4 5"/></g></svg>