<svg width="74" height="74" viewBox="0 0 74 74" fill="none" xmlns="http://www.w3.org/2000/svg">
<path d="M7 72H17" stroke="#0066FF" stroke-width="2.5" stroke-linecap="round" stroke-linejoin="round"/>
<path d="M7 21H17" stroke="#0066FF" stroke-width="2.5" stroke-linecap="round" stroke-linejoin="round"/>
<path d="M57 72H67" stroke="#0066FF" stroke-width="2.5" stroke-linecap="round" stroke-linejoin="round"/>
<path d="M57 21H67" stroke="#0066FF" stroke-width="2.5" stroke-linecap="round" stroke-linejoin="round"/>
<path d="M12 68V72" stroke="#0066FF" stroke-width="2.5" stroke-linecap="round" stroke-linejoin="round"/>
<path d="M12 17V21" stroke="#0066FF" stroke-width="2.5" stroke-linecap="round" stroke-linejoin="round"/>
<path d="M62 68V72" stroke="#0066FF" stroke-width="2.5" stroke-linecap="round" stroke-linejoin="round"/>
<path d="M62 17V21" stroke="#0066FF" stroke-width="2.5" stroke-linecap="round" stroke-linejoin="round"/>
<path d="M18.9991 53C19.7947 53 20.5577 53.3387 21.1202 53.9414C21.6828 54.5443 21.9988 55.3618 21.9988 56.2143V64.5971C22.0219 65.4746 21.7189 66.3259 21.1564 66.964C20.5939 67.6022 19.818 67.9747 18.9991 68H5.00074C4.18248 67.9742 3.40713 67.6017 2.8448 66.9642C2.28247 66.3267 1.97906 65.4762 2.00112 64.5993V56.2143C2.00112 55.3618 2.31716 54.5443 2.8797 53.9414C3.44224 53.3387 4.20522 53 5.00074 53H18.9991Z" stroke="#0066FF" stroke-width="2.5" stroke-linecap="round" stroke-linejoin="round"/>
<path d="M18.9991 2C19.7947 2 20.5577 2.3387 21.1202 2.94144C21.6828 3.54427 21.9988 4.36183 21.9988 5.21433V13.5971C22.0219 14.4746 21.7189 15.3259 21.1564 15.964C20.5939 16.6022 19.818 16.9747 18.9991 17H5.00074C4.18248 16.9742 3.40713 16.6017 2.8448 15.9642C2.28247 15.3267 1.97906 14.4762 2.00112 13.5993V5.21433C2.00112 4.36183 2.31716 3.54427 2.8797 2.94144C3.44224 2.3387 4.20522 2 5.00074 2H18.9991Z" stroke="#0066FF" stroke-width="2.5" stroke-linecap="round" stroke-linejoin="round"/>
<path d="M68.9991 53C69.7947 53 70.5577 53.3387 71.1202 53.9414C71.6828 54.5443 71.9988 55.3618 71.9988 56.2143V64.5971C72.0219 65.4746 71.7189 66.3259 71.1564 66.964C70.5939 67.6022 69.818 67.9747 68.9991 68H55.0007C54.1825 67.9742 53.4071 67.6017 52.8448 66.9642C52.2825 66.3267 51.9791 65.4762 52.0011 64.5993V56.2143C52.0011 55.3618 52.3172 54.5443 52.8797 53.9414C53.4422 53.3387 54.2052 53 55.0007 53H68.9991Z" stroke="#0066FF" stroke-width="2.5" stroke-linecap="round" stroke-linejoin="round"/>
<path d="M68.9991 2C69.7947 2 70.5577 2.3387 71.1202 2.94144C71.6828 3.54427 71.9988 4.36183 71.9988 5.21433V13.5971C72.0219 14.4746 71.7189 15.3259 71.1564 15.964C70.5939 16.6022 69.818 16.9747 68.9991 17H55.0007C54.1825 16.9742 53.4071 16.6017 52.8448 15.9642C52.2825 15.3267 51.9791 14.4762 52.0011 13.5993V5.21433C52.0011 4.36183 52.3172 3.54427 52.8797 2.94144C53.4422 2.3387 54.2052 2 55.0007 2H68.9991Z" stroke="#0066FF" stroke-width="2.5" stroke-linecap="round" stroke-linejoin="round"/>
<path d="M12 25V49" stroke="#0066FF" stroke-width="2.5" stroke-linecap="round" stroke-linejoin="round"/>
<path d="M62 25V49" stroke="#0066FF" stroke-width="2.5" stroke-linecap="round" stroke-linejoin="round"/>
<path d="M48 9L26 9" stroke="#0066FF" stroke-width="2.5" stroke-linecap="round" stroke-linejoin="round"/>
<path d="M48 61L26 61" stroke="#0066FF" stroke-width="2.5" stroke-linecap="round" stroke-linejoin="round"/>
<path fill-rule="evenodd" clip-rule="evenodd" d="M46.3306 37.6956H48.8695C49.4939 37.6956 50 37.1896 50 36.5652V35.4348C50 34.8104 49.4939 34.3044 48.8695 34.3044H46.3295C46.099 33.1585 45.7189 32.048 45.199 31.0012L46.9953 29.2061C47.4366 28.7646 47.4366 28.0491 46.9953 27.6076L45.3924 26.0092C44.9509 25.5679 44.2354 25.5679 43.7939 26.0092L41.9965 27.8055C40.9506 27.2854 39.8408 26.9053 38.6956 26.675V24.1305C38.6956 23.5061 38.1896 23 37.5652 23H36.4348C35.8104 23 35.3044 23.5061 35.3044 24.1305V26.6728C34.1588 26.903 33.0486 27.2831 32.0024 27.8032L30.205 26.0092C29.7635 25.5679 29.048 25.5679 28.6065 26.0092L27.007 27.6088C26.5657 28.0502 26.5657 28.7658 27.007 29.2072L28.8044 31.0035C28.2848 32.05 27.9048 33.1602 27.6739 34.3055H25.1304C24.5061 34.3055 24 34.8116 24 35.4359V36.5664C24 37.1907 24.5061 37.6968 25.1304 37.6968H27.6694C27.9002 38.8421 28.2803 39.9523 28.7998 40.9988L27.0025 42.7962C26.5611 43.2376 26.5611 43.9532 27.0025 44.3946L28.6065 45.993C29.048 46.4343 29.7635 46.4343 30.205 45.993L32.0012 44.1956C33.048 44.7155 34.1585 45.0956 35.3044 45.3261V47.8695C35.3044 48.4939 35.8104 49 36.4348 49H37.5652C38.1896 49 38.6956 48.4939 38.6956 47.8695V45.3317C39.8407 45.101 40.9504 44.721 41.9965 44.2013L43.795 45.9975C44.2365 46.4389 44.952 46.4389 45.3935 45.9975L46.9919 44.3991C47.4332 43.9577 47.4332 43.2421 46.9919 42.8007L45.1956 41.0033C45.7172 39.9552 46.0989 38.8432 46.3306 37.6956Z" stroke="#0066FF" stroke-width="2.5" stroke-linecap="round" stroke-linejoin="round"/>
<path fill-rule="evenodd" clip-rule="evenodd" d="M37 41C39.7614 41 42 38.7614 42 36C42 33.2386 39.7614 31 37 31C34.2386 31 32 33.2386 32 36C32 38.7614 34.2386 41 37 41Z" stroke="#0066FF" stroke-width="2.5" stroke-linecap="round" stroke-linejoin="round"/>
</svg>
