<svg fill="none" height="50" viewBox="0 0 49 50" width="49" xmlns="http://www.w3.org/2000/svg"><g stroke="#06f" stroke-linecap="round" stroke-linejoin="round" stroke-width="2"><path d="m19 48.3333h12"/><path d="m25 43v5.3333"/><path d="m41 29v11.2c0 .7426-.3161 1.4548-.8786 1.9799-.5627.5251-1.3257.8201-2.1214.8201h-26c-.7956 0-1.5587-.295-2.12128-.8201-.56264-.5251-.87872-1.2373-.87872-1.9799v-11.2"/><path d="m9 23v-5.3333h5.3333"/><path d="m21.2288 21.4379 3.7712-3.7712 3.7712 3.7712"/><path d="m9 17.6667 10 10.6667"/><path d="m40.9998 23v-5.3333h-5.3333"/><path d="m41 17.6667-10 10.6667"/><path d="m25 28.3334v-10.6667"/><path d="m8 7.66669c1.65686 0 3-1.34314 3-2.99999 0-1.65687-1.34314-3.00001-3-3.00001s-3 1.34314-3 3.00001c0 1.65685 1.34314 2.99999 3 2.99999z"/><path d="m24.6665 7.66669c1.6569 0 3-1.34314 3-2.99999 0-1.65687-1.3431-3.00001-3-3.00001s-3 1.34314-3 3.00001c0 1.65685 1.3431 2.99999 3 2.99999z"/><path d="m41.3335 7.66669c1.6569 0 3-1.34314 3-2.99999 0-1.65687-1.3431-3.00001-3-3.00001s-3 1.34314-3 3.00001c0 1.65685 1.3431 2.99999 3 2.99999z"/><path d="m14.3332 14.3334c-.3589-1.3346-1.1763-2.5179-2.3232-3.3629-1.1469-.8451-2.55784-1.30381-4.0102-1.30381-1.45235 0-2.86333.45871-4.0102 1.30381-1.14685.845-1.96423 2.0283-2.3231 3.3629z"/><path d="m31.0002 14.3334c-.3589-1.3346-1.1763-2.5179-2.3232-3.3629-1.1469-.8451-2.5579-1.30381-4.0102-1.30381-1.4524 0-2.8633.45871-4.0102 1.30381-1.1469.845-1.9642 2.0283-2.3231 3.3629z"/><path d="m47.6667 14.3334c-.3589-1.3346-1.1763-2.5179-2.3232-3.3629-1.1469-.8451-2.5578-1.30381-4.0102-1.30381s-2.8633.45871-4.0102 1.30381c-1.1469.845-1.9642 2.0283-2.3231 3.3629z"/></g></svg>