<svg fill="none" height="50" viewBox="0 0 50 50" width="50" xmlns="http://www.w3.org/2000/svg"><g stroke="#06f" stroke-linecap="round" stroke-linejoin="round" stroke-width="2"><path d="m44.2752 1.6665h-38.55073c-2.24115 0-4.05797 1.79086-4.05797 4v38.6667c0 2.2091 1.81682 4 4.05797 4h38.55073c2.2412 0 4.058-1.7909 4.058-4v-38.6667c0-2.20914-1.8168-4-4.058-4z"/><path d="m1.6665 11h46.6667"/><path d="m25 1v46.6667"/><path d="m10.3335 31.6667v-6.0667c0-.6896.2809-1.3509.781-1.8385s1.1784-.7615 1.8857-.7615c.7072 0 1.3855.2739 1.8856.7615s.781 1.1489.781 1.8385v6.0667"/><path d="m10.3335 28.3335h5.3333"/><path d="m38.3332 25c0 .5304-.2459 1.0391-.6835 1.4142-.4375.3751-1.031.5858-1.6499.5858h-2.3333v-4h2.3333c.6189 0 1.2124.2107 1.6499.5858.4376.3751.6835.8838.6835 1.4142z"/><path d="m38.3332 29.3333c0 .6189-.2459 1.2124-.6835 1.6499-.4375.4376-1.031.6835-1.6499.6835h-2.3333v-4.6667h2.3333c.6189 0 1.2124.2458 1.6499.6834.4376.4376.6835 1.0311.6835 1.6499z"/></g></svg>