<?xml version="1.0" encoding="UTF-8"?><svg id="Layer_1" xmlns="http://www.w3.org/2000/svg" viewBox="0 0 1024 250"><path d="m650.94,96.31h9.5l19.83,54.38,20.2-54.38h9.05l-25.04,65.26h-8.5l-25.04-65.26Z"/><path d="m749.52,148.32c-.79,4.57-2.82,8.17-6.08,10.79-3.26,2.62-7.94,3.93-14.03,3.93-7.19,0-12.7-2.18-16.54-6.54-3.84-4.36-5.76-10.43-5.76-18.23,0-4.08.55-7.71,1.64-10.88,1.1-3.17,2.63-5.82,4.62-7.95,1.98-2.13,4.34-3.76,7.08-4.89,2.74-1.13,5.73-1.69,8.96-1.69,3.66,0,6.79.58,9.41,1.74,2.62,1.16,4.77,2.76,6.44,4.8,1.67,2.04,2.92,4.46,3.75,7.27.82,2.8,1.23,5.88,1.23,9.23v4.02h-35.1c0,2.38.32,4.59.96,6.63.64,2.04,1.55,3.81,2.74,5.3,1.19,1.49,2.67,2.67,4.43,3.52,1.77.85,3.81,1.28,6.12,1.28,3.96,0,6.85-.75,8.68-2.24,1.83-1.49,3.08-3.52,3.75-6.08h7.68Zm-7.22-14.35c0-2.25-.24-4.3-.73-6.12-.49-1.83-1.25-3.4-2.29-4.71-1.04-1.31-2.38-2.33-4.02-3.06-1.65-.73-3.63-1.1-5.94-1.1-4.2,0-7.48,1.28-9.83,3.84-2.35,2.56-3.73,6.28-4.16,11.15h26.96Z"/><path d="m758.12,114.32h7.86v7.31c1.77-2.62,3.84-4.63,6.21-6.03,2.38-1.4,4.9-2.1,7.59-2.1,1.65,0,3.05.12,4.2.37l-1,7.4c-.61-.12-1.22-.23-1.83-.32-.61-.09-1.28-.14-2.01-.14-1.46,0-2.96.26-4.48.78-1.52.52-2.96,1.39-4.3,2.6-1.34,1.16-2.39,2.5-3.15,4.02-.76,1.52-1.14,3.29-1.14,5.3v28.06h-7.95v-47.25Z"/><path d="m794.61,120.62h-7.31v-6.31h7.31v-12.89h7.95v12.89h12.52v6.31h-12.52v27.69c0,2.32.52,4.17,1.55,5.58,1.04,1.4,2.62,2.1,4.75,2.1,1.34,0,2.51-.09,3.52-.27,1-.18,1.93-.43,2.79-.73l1.37,6.12c-1.22.43-2.54.78-3.98,1.05-1.43.27-3.12.41-5.07.41-2.68,0-4.84-.4-6.49-1.19-1.65-.79-2.96-1.92-3.93-3.38s-1.63-3.2-1.96-5.21c-.34-2.01-.5-4.2-.5-6.58v-25.59Z"/><path d="m821.42,96.31h8.5v9.23h-8.5v-9.23Zm.27,18.01h7.95v47.25h-7.95v-47.25Z"/><path d="m879.92,145.57c-.79,5.42-2.87,9.69-6.21,12.8-3.35,3.11-8.08,4.66-14.17,4.66-3.6,0-6.78-.58-9.55-1.74s-5.09-2.82-6.95-4.98c-1.86-2.16-3.26-4.78-4.2-7.86-.95-3.08-1.42-6.53-1.42-10.37s.52-7.22,1.55-10.33c1.04-3.11,2.53-5.76,4.48-7.95,1.95-2.19,4.33-3.9,7.13-5.12,2.8-1.22,5.97-1.83,9.5-1.83,5.67,0,10.05,1.39,13.16,4.16,3.11,2.77,5.09,6.6,5.94,11.47l-7.95,1.46c-.31-1.52-.72-2.92-1.23-4.2-.52-1.28-1.23-2.39-2.15-3.34-.91-.94-2.03-1.68-3.34-2.19-1.31-.52-2.88-.78-4.71-.78-2.5,0-4.63.47-6.4,1.42-1.77.95-3.21,2.25-4.34,3.93-1.13,1.68-1.95,3.64-2.47,5.9-.52,2.25-.78,4.66-.78,7.22s.24,4.97.73,7.22c.49,2.25,1.28,4.22,2.38,5.9,1.1,1.68,2.53,3,4.3,3.98,1.77.98,3.93,1.46,6.49,1.46,3.84,0,6.69-.97,8.55-2.92,1.86-1.95,3.06-4.6,3.61-7.95h8.04Z"/><path d="m917.52,155.08c-1.71,2.07-3.87,3.85-6.49,5.35-2.62,1.49-5.88,2.24-9.78,2.24-2.38,0-4.56-.29-6.54-.87-1.98-.58-3.69-1.46-5.12-2.65-1.43-1.19-2.54-2.67-3.34-4.43-.79-1.77-1.19-3.84-1.19-6.21,0-3.23.69-5.85,2.06-7.86s3.2-3.59,5.48-4.75c2.29-1.16,4.86-1.98,7.72-2.47,2.86-.49,5.82-.79,8.87-.91l8.13-.27v-1.83c0-4.02-.85-6.91-2.56-8.68-1.71-1.77-4.48-2.65-8.32-2.65s-6.55.63-8.32,1.87c-1.77,1.25-2.92,2.97-3.47,5.16l-7.22-.82c.85-4.33,2.89-7.48,6.12-9.46,3.23-1.98,7.62-2.97,13.16-2.97,3.41,0,6.29.41,8.64,1.23,2.34.82,4.25,2,5.71,3.52,1.46,1.52,2.51,3.41,3.15,5.67.64,2.25.96,4.78.96,7.59v30.71h-7.68v-6.49Zm-.18-17.18l-7.59.27c-3.23.12-5.91.43-8.04.91-2.13.49-3.82,1.14-5.07,1.96-1.25.82-2.13,1.84-2.65,3.06-.52,1.22-.78,2.62-.78,4.2,0,2.38.71,4.28,2.15,5.71,1.43,1.43,3.79,2.15,7.08,2.15,4.69,0,8.35-1.16,10.97-3.47,2.62-2.31,3.93-5.48,3.93-9.51v-5.3Z"/><path d="m935.57,102.99h-4.81v-2.19h12.11v2.19h-4.81v12.4h-2.48v-12.4Zm9.41-2.19h3.06l4.7,11.74,4.78-11.74h3.03v14.59h-2.22v-10.98l-4.56,10.98h-2.08l-4.49-10.94v10.94h-2.22v-14.59Z"/><path d="m131.22,129.86c0,16.44-9.47,34.25-34.87,34.25-18.31,0-35-10.21-35-34.25,0-19.93,12.58-35.25,37.49-33.88,26.53,1.49,32.38,22.04,32.38,33.88Zm-47.33-12.51c-2.37,3.65-3.24,8.02-3.24,12.39,0,10.09,4.98,19.22,15.69,19.22s15.44-8.41,15.44-18.37c0-7.05-1.74-12.52-5.36-15.92-3.99-3.65-8.47-3.77-11.21-3.52-5.48.36-8.72,2.19-11.33,6.2Z"/><path d="m301.23,103.33c1.87-1.99,3.11-3.49,6.48-5.11,2.99-1.25,7.22-2.24,11.83-2.24,3.86,0,8.22.62,11.58,2.49,6.85,3.61,8.59,9.47,8.59,19.55v44.47h-19.06v-36.62c0-5.85-.12-7.97-.87-9.72-1.49-3.49-4.86-4.98-8.59-4.98-10.09,0-10.09,8.1-10.09,16.19v35.12h-19.18v-64.89h19.31v5.73Z"/><path d="m272.81,145.7c-1.76,3.7-7.41,18.41-32.38,18.41-19.31,0-32.88-11.81-32.88-33.11,0-15.69,7.72-35.02,33.38-35.02,3.86,0,15.07-.48,23.42,8.49,8.47,9.09,8.97,21.8,9.22,29.15h-46.46c-.12,8.1,4.48,16.19,14.82,16.19s14.07-6.85,16.44-11.46l14.45,7.35Zm-19.06-24.04c-.37-2.74-.87-6.35-3.61-9.22-2.37-2.37-5.98-3.61-9.34-3.61-4.61,0-7.85,2.24-9.71,4.23-2.62,2.86-3.24,5.85-3.86,8.59h26.53Z"/><path d="m539.51,111.07h12.7v-13.47h-12.58v-13.66h-19.06v13.66h-3.02l-8.72,13.47h11.75v30.87c0,6.23.12,10.84,2.74,14.7,4.11,5.98,11.33,6.35,17.94,6.35,3.49,0,5.98-.37,10.09-1v-14.95l-6.85.25c-5.11,0-5.11-3.36-4.98-7.35v-28.88Z"/><path d="m349.26,83.93h19.06v13.67h19.81l-8.72,13.47h-11.21v28.88c-.12,3.99-.12,7.35,4.98,7.35l6.85-.25v14.95c-4.11.62-6.6,1-10.09,1-6.6,0-13.83-.37-17.94-6.35-2.62-3.86-2.74-8.47-2.74-14.7v-58.01Z"/><path d="m569.87,111.07h-2.35v-11.49h-4.34v-1.99h10.96v1.99h-4.26v11.49Zm18.47,0h-2.31l.08-8.32.12-2.76-.65,2.27-2.76,8.81h-2.11l-2.72-8.81-.69-2.23.16,2.72.08,8.32h-2.27v-13.47h3.21l3.37,10.63,3.29-10.63h3.21v13.47Z"/><path d="m448.16,145.76l-3.65,5.64c-3.42,5.01-9.84,12.72-28.26,12.72s-32.28-11.81-32.28-33.11c0-15.69,7.72-35.02,33.38-35.02,3.86,0,15.07-.48,23.42,8.49,8.47,9.09,8.97,21.8,9.22,29.15h-46.46c-.12,8.1,3.88,16.19,14.21,16.19s13.47-6.85,15.83-11.46l14.58,7.41Zm-17.97-24.1c-.37-2.74-.87-6.35-3.61-9.22-2.37-2.37-5.98-3.61-9.34-3.61-4.61,0-7.85,2.24-9.71,4.23-2.62,2.86-3.24,5.85-3.86,8.59h26.53Z"/><polygon points="513.45 162.5 489.62 128.34 509.49 97.6 487.68 97.6 478.3 112.11 468.18 97.6 446.37 97.6 467.81 128.34 445.73 162.5 467.54 162.5 479.13 144.57 491.64 162.5 513.45 162.5"/><path d="m157.57,103.33c1.83-2.79,7.72-7.35,17.06-7.35,15.94,0,27.16,12.08,27.16,33.75,0,13.33-4.85,34.38-27.96,34.38-8.31,0-14.75-4.62-16.38-7.35v27.22h-19.18v-86.38h19.31v5.73Zm12.95,7.63c-3.49,0-7.1,1.39-9.84,4.87-2.74,3.36-3.99,8.58-3.99,14.26,0,7.65,2.24,12.29,4.61,14.95,2.21,2.49,5.48,3.93,8.59,3.93,9.34,0,13.45-9.84,13.45-19.34,0-8-2.37-16.46-10.21-18.32-.87-.23-1.74-.35-2.62-.35Z"/><rect x="616.82" y="80.11" width="3.48" height="101.22"/></svg>