<svg width="32" height="32" viewBox="0 0 32 32" fill="none" xmlns="http://www.w3.org/2000/svg">
<g clip-path="url(#clip0)">
<path d="M15.98 32C24.8055 32 31.96 24.8366 31.96 16C31.96 7.16344 24.8055 0 15.98 0C7.15449 0 0 7.16344 0 16C0 24.8366 7.15449 32 15.98 32Z" fill="#078DB3"/>
<path d="M16 1C18.9667 1 21.8668 1.87973 24.3336 3.52796C26.8003 5.17618 28.7229 7.51886 29.8582 10.2597C30.9935 13.0006 31.2906 16.0166 30.7118 18.9264C30.133 21.8361 28.7044 24.5088 26.6066 26.6066C24.5088 28.7044 21.8361 30.133 18.9264 30.7118C16.0166 31.2906 13.0006 30.9935 10.2598 29.8582C7.51886 28.7229 5.17618 26.8003 3.52796 24.3336C1.87974 21.8668 1.00001 18.9667 1.00001 16C1.00001 12.0218 2.58036 8.20644 5.39341 5.3934C8.20645 2.58035 12.0218 1 16 1ZM16 0C12.8355 0 9.74207 0.938384 7.11088 2.69649C4.4797 4.45459 2.42894 6.95345 1.21793 9.87706C0.0069325 12.8007 -0.309921 16.0177 0.307443 19.1214C0.924806 22.2251 2.44866 25.0761 4.6863 27.3137C6.92394 29.5513 9.77487 31.0752 12.8786 31.6926C15.9823 32.3099 19.1993 31.9931 22.1229 30.7821C25.0466 29.5711 27.5454 27.5203 29.3035 24.8891C31.0616 22.2579 32 19.1645 32 16C32 11.7565 30.3143 7.68687 27.3137 4.68629C24.3131 1.68571 20.2435 0 16 0V0Z" fill="white"/>
<path d="M20.94 16.65V15.36H20C19.902 14.7231 19.6516 14.1193 19.27 13.6L19.93 12.94L19 12L18.35 12.65C17.8322 12.3081 17.2446 12.086 16.63 12V11H15.34V12C14.711 12.0981 14.1144 12.345 13.6 12.72L13 12.05L12.09 12.96L12.72 13.59C12.3436 14.1149 12.0969 14.7214 12 15.36H11.11V16.65H12C12.0966 17.2825 12.3435 17.8826 12.72 18.4L12 19L13 20L13.63 19.36C14.1479 19.744 14.7523 19.9947 15.39 20.09V21H16.68V20C17.3177 19.9047 17.9221 19.654 18.44 19.27L19 20L20 19L19.35 18.36C19.6959 17.8479 19.9183 17.2626 20 16.65H20.94ZM13.62 16C13.622 15.5321 13.7624 15.0753 14.0236 14.6871C14.2848 14.2989 14.655 13.9967 15.0877 13.8185C15.5203 13.6404 15.996 13.5943 16.4548 13.6861C16.9136 13.7778 17.335 14.0033 17.6658 14.3342C17.9967 14.665 18.2222 15.0864 18.314 15.5452C18.4057 16.004 18.3596 16.4797 18.1815 16.9123C18.0033 17.345 17.7011 17.7152 17.3129 17.9764C16.9247 18.2376 16.4679 18.378 16 18.38C15.6871 18.3813 15.377 18.3207 15.0877 18.2015C14.7983 18.0824 14.5354 17.9071 14.3141 17.6859C14.0929 17.4646 13.9176 17.2017 13.7985 16.9123C13.6793 16.623 13.6187 16.3129 13.62 16Z" fill="white"/>
<path d="M23.87 9.78999V6.99999C23.8674 6.88504 23.8199 6.77568 23.7376 6.69531C23.6554 6.61495 23.545 6.56996 23.43 6.56999C23.316 6.56999 23.2066 6.6153 23.1259 6.69594C23.0453 6.77658 23 6.88595 23 6.99999V8.80999C21.3688 7.17704 19.223 6.15861 16.9265 5.92746C14.63 5.69631 12.3243 6.26667 10.4004 7.5418C8.47656 8.81693 7.053 10.7183 6.37125 12.9234C5.68949 15.1285 5.79151 17.5015 6.66 19.64H7.59C6.98416 18.2455 6.73496 16.7222 6.86487 15.2073C6.99477 13.6925 7.4997 12.2338 8.33411 10.9629C9.16852 9.69189 10.3062 8.64861 11.6445 7.92711C12.9828 7.2056 14.4796 6.82856 16 6.82999C18.356 6.82659 20.6216 7.73711 22.32 9.36999H20.62C20.5033 9.36999 20.3914 9.41635 20.3089 9.49887C20.2264 9.58138 20.18 9.6933 20.18 9.80999C20.18 9.92669 20.2264 10.0386 20.3089 10.1211C20.3914 10.2036 20.5033 10.25 20.62 10.25H23.87V9.79999V9.78999Z" fill="white"/>
<path d="M24.31 12.18C25.2002 14.131 25.3776 16.3326 24.8114 18.401C24.2451 20.4694 22.9711 22.2736 21.2113 23.4991C19.4515 24.7247 17.3174 25.2939 15.181 25.1077C13.0446 24.9215 11.0412 23.9916 9.52 22.48H11.34C11.444 22.4642 11.539 22.4116 11.6075 22.3318C11.6761 22.252 11.7139 22.1502 11.7139 22.045C11.7139 21.9398 11.6761 21.838 11.6075 21.7582C11.539 21.6784 11.444 21.6258 11.34 21.61H8.08V24.86C8.07047 24.9226 8.07459 24.9866 8.09208 25.0475C8.10956 25.1084 8.14 25.1649 8.1813 25.2129C8.22261 25.261 8.27381 25.2996 8.3314 25.326C8.389 25.3524 8.45162 25.3661 8.515 25.3661C8.57837 25.3661 8.641 25.3524 8.69859 25.326C8.75618 25.2996 8.80738 25.261 8.84869 25.2129C8.89 25.1649 8.92043 25.1084 8.93792 25.0475C8.9554 24.9866 8.95952 24.9226 8.95 24.86V23.16C10.355 24.5567 12.1432 25.5047 14.0877 25.8836C16.0322 26.2625 18.0455 26.0552 19.8721 25.2882C21.6987 24.5211 23.2563 23.2288 24.3473 21.5751C25.4383 19.9215 26.0135 17.9811 26 16C26.0032 14.6888 25.7448 13.3901 25.24 12.18H24.31Z" fill="white"/>
</g>
<defs>
<clipPath id="clip0">
<rect width="32" height="32" fill="white"/>
</clipPath>
</defs>
</svg>
