<svg width="32" height="32" viewBox="0 0 32 32" fill="none" xmlns="http://www.w3.org/2000/svg">
<g clip-path="url(#clip0)">
<path d="M6.95899 0.513995H24.966C25.8942 0.513995 26.7845 0.882743 27.4409 1.53912C28.0972 2.1955 28.466 3.08574 28.466 4.01399V28.017C28.466 28.9453 28.0972 29.8355 27.4409 30.4919C26.7845 31.1482 25.8942 31.517 24.966 31.517H6.95999C6.03173 31.517 5.1415 31.1482 4.48512 30.4919C3.82874 29.8355 3.45999 28.9453 3.45999 28.017V4.00999C3.45999 3.08174 3.82874 2.1915 4.48512 1.53512C5.1415 0.878743 6.03173 0.509995 6.95999 0.509995L6.95899 0.513995Z" fill="#C7CBD0"/>
<path d="M24.966 1.014C25.7617 1.014 26.5247 1.33007 27.0873 1.89268C27.6499 2.45529 27.966 3.21835 27.966 4.014V28.017C27.966 28.8127 27.6499 29.5757 27.0873 30.1383C26.5247 30.7009 25.7617 31.017 24.966 31.017H6.95901C6.16337 31.017 5.4003 30.7009 4.83769 30.1383C4.27509 29.5757 3.95901 28.8127 3.95901 28.017V4.011C3.95901 3.21535 4.27509 2.45229 4.83769 1.88968C5.4003 1.32707 6.16337 1.011 6.95901 1.011H24.966V1.014ZM24.966 0.0110016H6.95901C5.89888 0.0133789 4.88284 0.43557 4.13321 1.1852C3.38358 1.93483 2.96139 2.95087 2.95901 4.011V28.017C2.96139 29.0771 3.38358 30.0932 4.13321 30.8428C4.88284 31.5924 5.89888 32.0146 6.95901 32.017H24.966C26.0261 32.0146 27.0422 31.5924 27.7918 30.8428C28.5414 30.0932 28.9636 29.0771 28.966 28.017V4.011C28.9636 2.95087 28.5414 1.93483 27.7918 1.1852C27.0422 0.43557 26.0261 0.0133789 24.966 0.0110016Z" fill="white"/>
<path d="M22.083 9.026H9.94601C9.41558 9.026 8.90687 8.81529 8.5318 8.44021C8.15673 8.06514 7.94601 7.55643 7.94601 7.026C7.94601 6.49557 8.15673 5.98686 8.5318 5.61179C8.90687 5.23671 9.41558 5.026 9.94601 5.026H22.083C22.6134 5.026 23.1222 5.23671 23.4972 5.61179C23.8723 5.98686 24.083 6.49557 24.083 7.026C24.083 7.55643 23.8723 8.06514 23.4972 8.44021C23.1222 8.81529 22.6134 9.026 22.083 9.026Z" fill="#627784"/>
<path d="M14.024 29.028H10.01C9.47958 29.028 8.97087 28.8173 8.5958 28.4422C8.22072 28.0671 8.01001 27.5584 8.01001 27.028C8.01001 26.4976 8.22072 25.9889 8.5958 25.6138C8.97087 25.2387 9.47958 25.028 10.01 25.028H14.024C14.2867 25.028 14.5467 25.0797 14.7894 25.1802C15.032 25.2808 15.2525 25.4281 15.4382 25.6138C15.6239 25.7995 15.7713 26.02 15.8718 26.2626C15.9723 26.5053 16.024 26.7654 16.024 27.028C16.024 27.2906 15.9723 27.5507 15.8718 27.7934C15.7713 28.036 15.6239 28.2565 15.4382 28.4422C15.2525 28.6279 15.032 28.7752 14.7894 28.8758C14.5467 28.9763 14.2867 29.028 14.024 29.028Z" fill="#A8B1B9"/>
<path d="M14.024 28.027H10.01C9.47958 28.027 8.97087 27.8163 8.5958 27.4412C8.22072 27.0661 8.01001 26.5574 8.01001 26.027C8.01001 25.4966 8.22072 24.9879 8.5958 24.6128C8.97087 24.2377 9.47958 24.027 10.01 24.027H14.024C14.2867 24.027 14.5467 24.0787 14.7894 24.1792C15.032 24.2798 15.2525 24.4271 15.4382 24.6128C15.6239 24.7985 15.7713 25.019 15.8718 25.2616C15.9723 25.5043 16.024 25.7644 16.024 26.027C16.024 26.2896 15.9723 26.5497 15.8718 26.7924C15.7713 27.035 15.6239 27.2555 15.4382 27.4412C15.2525 27.6269 15.032 27.7743 14.7894 27.8748C14.5467 27.9753 14.2867 28.027 14.024 28.027Z" fill="#D24625"/>
<path d="M11.017 14.051H9.009C8.74379 14.051 8.48943 13.9456 8.3019 13.7581C8.11436 13.5706 8.009 13.3162 8.009 13.051C8.009 12.7858 8.11436 12.5314 8.3019 12.3439C8.48943 12.1564 8.74379 12.051 9.009 12.051H11.017C11.2822 12.051 11.5366 12.1564 11.7241 12.3439C11.9116 12.5314 12.017 12.7858 12.017 13.051C12.017 13.3162 11.9116 13.5706 11.7241 13.7581C11.5366 13.9456 11.2822 14.051 11.017 14.051Z" fill="#A8B1B9"/>
<path d="M11.017 13.092H9.009C8.74379 13.092 8.48943 12.9866 8.3019 12.7991C8.11436 12.6116 8.009 12.3572 8.009 12.092C8.009 11.8268 8.11436 11.5724 8.3019 11.3849C8.48943 11.1974 8.74379 11.092 9.009 11.092H11.017C11.2822 11.092 11.5366 11.1974 11.7241 11.3849C11.9116 11.5724 12.017 11.8268 12.017 12.092C12.017 12.3572 11.9116 12.6116 11.7241 12.7991C11.5366 12.9866 11.2822 13.092 11.017 13.092Z" fill="white"/>
<path d="M17.038 14.051H15.03C14.7648 14.051 14.5104 13.9456 14.3229 13.7581C14.1354 13.5706 14.03 13.3162 14.03 13.051C14.03 12.7858 14.1354 12.5314 14.3229 12.3439C14.5104 12.1564 14.7648 12.051 15.03 12.051H17.038C17.3032 12.051 17.5576 12.1564 17.7451 12.3439C17.9326 12.5314 18.038 12.7858 18.038 13.051C18.038 13.3162 17.9326 13.5706 17.7451 13.7581C17.5576 13.9456 17.3032 14.051 17.038 14.051Z" fill="#A8B1B9"/>
<path d="M17.038 13.092H15.03C14.7648 13.092 14.5104 12.9866 14.3229 12.7991C14.1354 12.6116 14.03 12.3572 14.03 12.092C14.03 11.8268 14.1354 11.5724 14.3229 11.3849C14.5104 11.1974 14.7648 11.092 15.03 11.092H17.038C17.3032 11.092 17.5576 11.1974 17.7451 11.3849C17.9326 11.5724 18.038 11.8268 18.038 12.092C18.038 12.3572 17.9326 12.6116 17.7451 12.7991C17.5576 12.9866 17.3032 13.092 17.038 13.092Z" fill="white"/>
<path d="M23.017 14.051H21.009C20.7438 14.051 20.4894 13.9456 20.3019 13.7581C20.1144 13.5706 20.009 13.3162 20.009 13.051C20.009 12.7858 20.1144 12.5314 20.3019 12.3439C20.4894 12.1564 20.7438 12.051 21.009 12.051H23.017C23.2822 12.051 23.5366 12.1564 23.7241 12.3439C23.9116 12.5314 24.017 12.7858 24.017 13.051C24.017 13.3162 23.9116 13.5706 23.7241 13.7581C23.5366 13.9456 23.2822 14.051 23.017 14.051Z" fill="#A8B1B9"/>
<path d="M23.017 13.092H21.009C20.7438 13.092 20.4894 12.9866 20.3019 12.7991C20.1144 12.6116 20.009 12.3572 20.009 12.092C20.009 11.8268 20.1144 11.5724 20.3019 11.3849C20.4894 11.1974 20.7438 11.092 21.009 11.092H23.017C23.2822 11.092 23.5366 11.1974 23.7241 11.3849C23.9116 11.5724 24.017 11.8268 24.017 12.092C24.017 12.3572 23.9116 12.6116 23.7241 12.7991C23.5366 12.9866 23.2822 13.092 23.017 13.092Z" fill="white"/>
<path d="M11.017 18.051H9.009C8.74379 18.051 8.48943 17.9456 8.3019 17.7581C8.11436 17.5706 8.009 17.3162 8.009 17.051C8.009 16.7858 8.11436 16.5314 8.3019 16.3439C8.48943 16.1564 8.74379 16.051 9.009 16.051H11.017C11.2822 16.051 11.5366 16.1564 11.7241 16.3439C11.9116 16.5314 12.017 16.7858 12.017 17.051C12.017 17.3162 11.9116 17.5706 11.7241 17.7581C11.5366 17.9456 11.2822 18.051 11.017 18.051Z" fill="#A8B1B9"/>
<path d="M11.017 17.092H9.009C8.74379 17.092 8.48943 16.9866 8.3019 16.7991C8.11436 16.6116 8.009 16.3572 8.009 16.092C8.009 15.8268 8.11436 15.5724 8.3019 15.3849C8.48943 15.1974 8.74379 15.092 9.009 15.092H11.017C11.2822 15.092 11.5366 15.1974 11.7241 15.3849C11.9116 15.5724 12.017 15.8268 12.017 16.092C12.017 16.3572 11.9116 16.6116 11.7241 16.7991C11.5366 16.9866 11.2822 17.092 11.017 17.092Z" fill="white"/>
<path d="M17.038 18.051H15.03C14.7648 18.051 14.5104 17.9456 14.3229 17.7581C14.1354 17.5706 14.03 17.3162 14.03 17.051C14.03 16.7858 14.1354 16.5314 14.3229 16.3439C14.5104 16.1564 14.7648 16.051 15.03 16.051H17.038C17.3032 16.051 17.5576 16.1564 17.7451 16.3439C17.9326 16.5314 18.038 16.7858 18.038 17.051C18.038 17.3162 17.9326 17.5706 17.7451 17.7581C17.5576 17.9456 17.3032 18.051 17.038 18.051Z" fill="#A8B1B9"/>
<path d="M17.038 17.092H15.03C14.7648 17.092 14.5104 16.9866 14.3229 16.7991C14.1354 16.6116 14.03 16.3572 14.03 16.092C14.03 15.8268 14.1354 15.5724 14.3229 15.3849C14.5104 15.1974 14.7648 15.092 15.03 15.092H17.038C17.3032 15.092 17.5576 15.1974 17.7451 15.3849C17.9326 15.5724 18.038 15.8268 18.038 16.092C18.038 16.3572 17.9326 16.6116 17.7451 16.7991C17.5576 16.9866 17.3032 17.092 17.038 17.092Z" fill="white"/>
<path d="M23.017 18.051H21.009C20.7438 18.051 20.4894 17.9456 20.3019 17.7581C20.1144 17.5706 20.009 17.3162 20.009 17.051C20.009 16.7858 20.1144 16.5314 20.3019 16.3439C20.4894 16.1564 20.7438 16.051 21.009 16.051H23.017C23.2822 16.051 23.5366 16.1564 23.7241 16.3439C23.9116 16.5314 24.017 16.7858 24.017 17.051C24.017 17.3162 23.9116 17.5706 23.7241 17.7581C23.5366 17.9456 23.2822 18.051 23.017 18.051Z" fill="#A8B1B9"/>
<path d="M23.017 17.092H21.009C20.7438 17.092 20.4894 16.9866 20.3019 16.7991C20.1144 16.6116 20.009 16.3572 20.009 16.092C20.009 15.8268 20.1144 15.5724 20.3019 15.3849C20.4894 15.1974 20.7438 15.092 21.009 15.092H23.017C23.2822 15.092 23.5366 15.1974 23.7241 15.3849C23.9116 15.5724 24.017 15.8268 24.017 16.092C24.017 16.3572 23.9116 16.6116 23.7241 16.7991C23.5366 16.9866 23.2822 17.092 23.017 17.092Z" fill="white"/>
<path d="M11.017 22.051H9.009C8.74379 22.051 8.48943 21.9456 8.3019 21.7581C8.11436 21.5706 8.009 21.3162 8.009 21.051C8.009 20.7858 8.11436 20.5314 8.3019 20.3439C8.48943 20.1564 8.74379 20.051 9.009 20.051H11.017C11.2822 20.051 11.5366 20.1564 11.7241 20.3439C11.9116 20.5314 12.017 20.7858 12.017 21.051C12.017 21.3162 11.9116 21.5706 11.7241 21.7581C11.5366 21.9456 11.2822 22.051 11.017 22.051Z" fill="#A8B1B9"/>
<path d="M11.017 21.092H9.009C8.74379 21.092 8.48943 20.9866 8.3019 20.7991C8.11436 20.6116 8.009 20.3572 8.009 20.092C8.009 19.8268 8.11436 19.5724 8.3019 19.3849C8.48943 19.1974 8.74379 19.092 9.009 19.092H11.017C11.2822 19.092 11.5366 19.1974 11.7241 19.3849C11.9116 19.5724 12.017 19.8268 12.017 20.092C12.017 20.3572 11.9116 20.6116 11.7241 20.7991C11.5366 20.9866 11.2822 21.092 11.017 21.092Z" fill="white"/>
<path d="M17.038 22.051H15.03C14.7648 22.051 14.5104 21.9456 14.3229 21.7581C14.1354 21.5706 14.03 21.3162 14.03 21.051C14.03 20.7858 14.1354 20.5314 14.3229 20.3439C14.5104 20.1564 14.7648 20.051 15.03 20.051H17.038C17.3032 20.051 17.5576 20.1564 17.7451 20.3439C17.9326 20.5314 18.038 20.7858 18.038 21.051C18.038 21.3162 17.9326 21.5706 17.7451 21.7581C17.5576 21.9456 17.3032 22.051 17.038 22.051Z" fill="#A8B1B9"/>
<path d="M17.038 21.092H15.03C14.7648 21.092 14.5104 20.9866 14.3229 20.7991C14.1354 20.6116 14.03 20.3572 14.03 20.092C14.03 19.8268 14.1354 19.5724 14.3229 19.3849C14.5104 19.1974 14.7648 19.092 15.03 19.092H17.038C17.3032 19.092 17.5576 19.1974 17.7451 19.3849C17.9326 19.5724 18.038 19.8268 18.038 20.092C18.038 20.3572 17.9326 20.6116 17.7451 20.7991C17.5576 20.9866 17.3032 21.092 17.038 21.092Z" fill="white"/>
<path d="M23.017 22.051H21.009C20.7438 22.051 20.4894 21.9456 20.3019 21.7581C20.1144 21.5706 20.009 21.3162 20.009 21.051C20.009 20.7858 20.1144 20.5314 20.3019 20.3439C20.4894 20.1564 20.7438 20.051 21.009 20.051H23.017C23.2822 20.051 23.5366 20.1564 23.7241 20.3439C23.9116 20.5314 24.017 20.7858 24.017 21.051C24.017 21.3162 23.9116 21.5706 23.7241 21.7581C23.5366 21.9456 23.2822 22.051 23.017 22.051Z" fill="#A8B1B9"/>
<path d="M23.017 21.092H21.009C20.7438 21.092 20.4894 20.9866 20.3019 20.7991C20.1144 20.6116 20.009 20.3572 20.009 20.092C20.009 19.8268 20.1144 19.5724 20.3019 19.3849C20.4894 19.1974 20.7438 19.092 21.009 19.092H23.017C23.2822 19.092 23.5366 19.1974 23.7241 19.3849C23.9116 19.5724 24.017 19.8268 24.017 20.092C24.017 20.3572 23.9116 20.6116 23.7241 20.7991C23.5366 20.9866 23.2822 21.092 23.017 21.092Z" fill="white"/>
</g>
<defs>
<clipPath id="clip0">
<rect width="32" height="32" fill="white"/>
</clipPath>
</defs>
</svg>
