<svg width="32" height="32" viewBox="0 0 32 32" fill="none" xmlns="http://www.w3.org/2000/svg">
<path d="M25.1 22.3C24.7 21.9 24.2 21.7 23.7 21.7C23.4 21.7 23.2 21.8 22.9 21.8C23.1 21.4 23.3 21 23.5 20.7L23.6 20.5C24.4 19.1 24.9 17.5 24.9 15.9C25 11 21 7 16 7C11 7 7 11 7 16C7 17.6 7.4 19.2 8.3 20.6L8.4 20.8C8.6 21.1 8.8 21.5 9 21.9C8.8 21.8 8.5 21.8 8.3 21.8C7.8 21.8 7.2 22 6.9 22.4L4.8 24.5C4 25.3 4 26.5 4.8 27.3C5.2 27.7 5.7 27.9 6.2 27.9C6.7 27.9 7.3 27.7 7.6 27.3L9.7 25.2C9.8 25.1 9.9 24.9 10 24.7C10 24.8 10 24.9 10 25V26.6C10 27.4 10.7 28.2 11.5 28.2C11.7 28.8 12.3 29.3 12.9 29.4V30.4C12.9 31.3 13.6 32 14.4 32H16H17H17.5C18.3 32 19 31.3 19 30.4V29.4C19.6 29.3 20.2 28.8 20.4 28.2C21.2 28.2 21.9 27.4 21.9 26.6V24.9C21.9 24.8 21.9 24.7 21.9 24.6C22 24.8 22.1 24.9 22.2 25.1L24.3 27.2C24.7 27.6 25.2 27.8 25.7 27.8C26.2 27.8 26.7 27.6 27.1 27.2C27.9 26.4 27.9 25.2 27.1 24.4L25.1 22.3Z" fill="white"/>
<path d="M30 14H27C25.9 14 25 14.9 25 16C25 17.1 25.9 18 27 18H30C31.2 18 32 17.2 32 16C32 14.9 31.1 14 30 14Z" fill="white"/>
<path d="M23.8 10.2C24.3 10.2 24.9 10 25.2 9.60001L27.3 7.50001C28.1 6.70001 28.1 5.50001 27.3 4.70001C26.9 4.30001 26.4 4.10001 25.9 4.10001C25.4 4.10001 24.8 4.30001 24.5 4.70001L22.4 6.80001C21.6 7.60001 21.6 8.80001 22.4 9.60001C22.7 10 23.2 10.2 23.8 10.2Z" fill="white"/>
<path d="M18 5V2C18 0.8 17.2 0 16 0C14.9 0 14 0.9 14 2V5C14 6.1 14.9 7 16 7C17.1 7 18 6.1 18 5Z" fill="white"/>
<path d="M6.80001 9.60001C7.20001 10 7.70001 10.2 8.20001 10.2C8.70001 10.2 9.30001 10 9.60001 9.60001C10.4 8.80001 10.4 7.60001 9.60001 6.80001L7.50001 4.70001C7.10001 4.30001 6.60001 4.10001 6.10001 4.10001C5.60001 4.10001 5.10001 4.30001 4.70001 4.70001C3.90001 5.50001 3.90001 6.70001 4.70001 7.50001L6.80001 9.60001Z" fill="white"/>
<path d="M5 14H2C0.8 14 0 14.8 0 16C0 17.1 0.9 18 2 18H5C6.1 18 7 17.1 7 16C7 14.9 6.1 14 5 14Z" fill="white"/>
<path d="M30 17H27C26.5 17 26 16.6 26 16C26 15.5 26.4 15 27 15H30C30.5 15 31 15.4 31 16C31 16.6 30.6 17 30 17Z" fill="#797979"/>
<path d="M20.2 20.3C20.7 19 21 17.6 21 16C21 11.6 18.8 8 16 8C11.6 8 8 11.6 8 16C8 17.6 8.5 19 9.2 20.3C9.8 21.4 10.8 23.3 11 24.6C11 24.8 11.2 25 11.4 25C11.6 25 19.1 25 19.1 25C19.1 23.7 19.8 21.5 20.2 20.3Z" fill="#EEB111"/>
<path d="M22.7 20.3C22.8 20.3 22.7 20.3 22.7 20.3C23.5 19 24 17.6 24 16C24 11.6 20.4 8 16 8C18.8 8 21 11.6 21 16C21 17.6 20.7 19 20.2 20.3C19.8 21.5 19.1 23.7 19.1 25C19.1 25 20.3 25 20.5 25C20.7 25 21 24.7 21 24.6C21.2 23.3 22.2 21.4 22.7 20.3Z" fill="#F48C17"/>
<path d="M26.6 6.80001L24.5 8.90001C24.1 9.30001 23.5 9.30001 23.1 8.90001C22.7 8.50001 22.7 7.90001 23.1 7.50001L25.2 5.40001C25.6 5.00001 26.2 5.00001 26.6 5.40001C27 5.80001 27 6.40001 26.6 6.80001Z" fill="#797979"/>
<path d="M17 2V5C17 5.5 16.6 6 16 6C15.5 6 15 5.6 15 5V2C15 1.5 15.4 1 16 1C16.6 1 17 1.4 17 2Z" fill="#797979"/>
<path d="M6.80001 5.40001L8.90001 7.50001C9.30001 7.90001 9.30001 8.50001 8.90001 8.90001C8.50001 9.30001 7.90001 9.30001 7.50001 8.90001L5.40001 6.80001C5.00001 6.50001 5.00001 5.80001 5.40001 5.40001C5.80001 5.00001 6.40001 5.00001 6.80001 5.40001Z" fill="#797979"/>
<path d="M2 15H5C5.5 15 6 15.4 6 16C6 16.5 5.6 17 5 17H2C1.5 17 1 16.6 1 16C1 15.4 1.4 15 2 15Z" fill="#797979"/>
<path d="M5.40001 25.2L7.50001 23.1C7.90001 22.7 8.50001 22.7 8.90001 23.1C9.30001 23.5 9.30001 24.1 8.90001 24.5L6.80001 26.6C6.40001 27 5.80001 27 5.40001 26.6C5.00001 26.2 5.00001 25.6 5.40001 25.2Z" fill="#797979"/>
<path d="M25.2 26.6L23.1 24.5C22.7 24.1 22.7 23.5 23.1 23.1C23.5 22.7 24.1 22.7 24.5 23.1L26.6 25.2C27 25.6 27 26.2 26.6 26.6C26.2 27 25.6 27 25.2 26.6Z" fill="#797979"/>
<path d="M20.5 26H17H15.1H11.6C11.3 26 11 26.3 11 26.6C11 26.9 11.3 27.2 11.6 27.2C11.9 27.2 12.5 27.5 12.5 27.8C12.5 28.1 12.9 28.4 13.3 28.4C13.6 28.4 14.1 28.7 14.1 29V30.4C14.1 30.7 14.3 31 14.6 31H17.5C17.8 31 18 30.7 18 30.4V29C18 28.7 18.5 28.4 18.8 28.4C19.2 28.4 19.6 28.1 19.6 27.8C19.6 27.5 20.2 27.2 20.5 27.2C20.8 27.2 21.1 26.9 21.1 26.6C21.1 26.3 20.8 26 20.5 26Z" fill="#999999"/>
</svg>
