<svg fill="none" height="72" viewBox="0 0 72 72" width="72" xmlns="http://www.w3.org/2000/svg"><g stroke="#06f" stroke-linecap="round" stroke-linejoin="round" stroke-width="2.5"><path d="m46.0166 34.3228h-19.5v16.713h19.5z"/><path d="m15 70.0561v-10.809h42v10.809"/><path d="m15 59.2471-12.75-12.75"/><path d="m57 59.2471 12.75-12.75"/><path d="m36.1855 14.6396c.8285 0 1.5-.6715 1.5-1.5 0-.8284-.6715-1.5-1.5-1.5-.8284 0-1.5.6716-1.5 1.5 0 .8285.6716 1.5 1.5 1.5z"/><path d="m29.5054 17.142-7.443 4.38 1.5 6.483c.2696 1.1624.0664 2.3843-.5648 3.397s-1.6388 1.7331-2.8012 2.003c-.3343.0783-.6766.1176-1.02.117-1.0161-.0008-2.002-.3455-2.7972-.9779-.7953-.6324-1.3532-1.5153-1.5828-2.5051l-2.25-9.702c-.2168-.9333-.1301-1.9115.2477-2.7921.3777-.8807 1.0266-1.6177 1.8523-2.1039l13.524-7.941"/><path d="m44.3638 7.5 13.536 7.941c.8257.4862 1.4747 1.2232 1.8524 2.1039.3777.8806.4644 1.8588.2476 2.7921l-2.25 9.702c-.2296.9898-.7875 1.8727-1.5827 2.5051-.7953.6324-1.7812.9771-2.7973.9779-.3424.0008-.6837-.0385-1.017-.117-1.1623-.2699-2.1699-.9903-2.8012-2.003-.6312-1.0127-.8343-2.2346-.5648-3.397l1.5-6.483-7.521-4.422"/><path d="m44.3641 1.94385v10.61095c0 2.1483-.8534 4.2086-2.3725 5.7276-1.519 1.5191-3.5793 2.3724-5.7275 2.3724-2.1483 0-4.2086-.8533-5.7276-2.3724-1.519-1.519-2.3724-3.5793-2.3724-5.7276v-10.61095"/></g></svg>