<svg fill="none" height="72" viewBox="0 0 72 72" width="72" xmlns="http://www.w3.org/2000/svg"><g stroke="#06f" stroke-linecap="round" stroke-linejoin="round" stroke-width="2.5"><path d="m44.3999 37.6798c.6102.687 1.3543 1.2421 2.1866 1.6315.8323.3893 1.7353.6046 2.6538.6327.9184.0281 1.8329-.1316 2.6875-.4694.8545-.3377 1.6311-.8464 2.2821-1.4948l13.35-13.35c1.8906-1.8953 2.9523-4.463 2.9523-7.14s-1.0617-5.2448-2.9523-7.14l-6-6.00003c-1.8952-1.89058-4.463-2.95231-7.14-2.95231s-5.2447 1.06173-7.14 2.95231l-13.26 13.44003c-.6476.6484-1.1557 1.4225-1.4932 2.2746-.3374.852-.497 1.7641-.4689 2.6802.0281.916.2433 1.8166.6323 2.6464s.9437 1.5712 1.6298 2.1788"/><path d="m27.5996 34.3198c-.6126-.6832-1.3574-1.235-2.1895-1.6219-.8321-.3868-1.7341-.6008-2.6512-.6288-.9172-.0281-1.8306.1304-2.6847.4657-.8542.3353-1.6314.8405-2.2846 1.485l-13.34998 13.35c-1.89059 1.8952-2.95232 4.463-2.95232 7.14s1.06173 5.2447 2.95232 7.14l5.99998 6c1.8953 1.8905 4.463 2.9523 7.14 2.9523s5.2447-1.0618 7.14-2.9523l13.35-13.35c.6484-.6511 1.1571-1.4277 1.4949-2.2822.3377-.8546.4975-1.7691.4694-2.6875s-.2434-1.8215-.6328-2.6538c-.3893-.8323-.9445-1.5763-1.6315-2.1865"/><path d="m22.9199 49.0799 26.16-26.16"/></g></svg>