<svg width="32" height="32" viewBox="0 0 32 32" fill="none" xmlns="http://www.w3.org/2000/svg">
<path d="M16 32C24.8366 32 32 24.8366 32 16C32 7.16344 24.8366 0 16 0C7.16344 0 0 7.16344 0 16C0 24.8366 7.16344 32 16 32Z" fill="#C83370"/>
<path d="M23.0462 13.5813C24.3209 12.3067 24.3182 10.2382 23.04 8.96001C21.7627 7.68267 19.6924 7.67912 18.4187 8.95379L17.2551 10.1173L21.8827 14.7449L23.0462 13.5813Z" fill="white"/>
<path d="M9.15644 18.216L8 24L13.784 22.8436L20.7262 15.9013L16.0987 11.2738L9.15644 18.216Z" fill="white"/>
</svg>
