<svg fill="none" height="72" viewBox="0 0 72 72" width="72" xmlns="http://www.w3.org/2000/svg" xmlns:xlink="http://www.w3.org/1999/xlink"><clipPath id="a"><path d="m0 0h72v72h-72z"/></clipPath><g clip-path="url(#a)" stroke="#06f" stroke-linecap="round" stroke-linejoin="round" stroke-width="2.5"><path d="m10.5 22.5h15v9h-15z"/><path d="m10.5 37.5h15v9h-15z"/><path d="m10.5 52.5h15v9h-15z"/><path d="m30 70.5h-25.5c-.79565 0-1.55871-.3161-2.12132-.8787s-.87868-1.3257-.87868-2.1213v-63c0-.79565.31607-1.55871.87868-2.12132s1.32567-.87868 2.12132-.87868h28.758c.7956.00017 1.5585.31635 2.121.879l16.242 16.242c.5627.5625.8788 1.3254.879 2.121v18.258"/><path d="m34.5 1.76953v14.72997c0 .7957.3161 1.5587.8787 2.1214.5626.5626 1.3257.8786 2.1213.8786h14.73"/><path d="m25.5 25.5h6c.7956 0 1.5587.3161 2.1213.8787s.8787 1.3257.8787 2.1213v24c0 .7956-.3161 1.5587-.8787 2.1213s-1.3257.8787-2.1213.8787h-6"/><path d="m25.5 40.5h16.5"/><path d="m64.4494 50.0484-19.0746 19.0767-9.3748 1.8749 1.875-9.3746 19.0745-19.0767c.992-.9916 2.3373-1.5487 3.7399-1.5487 1.4027 0 2.748.5571 3.74 1.5487l.02.0225c.4915.4907.8815 1.0734 1.1476 1.7149.266.6415.403 1.3292.403 2.0237s-.137 1.3822-.403 2.0237c-.2661.6415-.6561 1.2243-1.1476 1.7149z"/></g></svg>