<svg fill="none" height="74" viewBox="0 0 74 74" width="74" xmlns="http://www.w3.org/2000/svg"><g stroke="#06f" stroke-linecap="round" stroke-linejoin="round" stroke-width="2.5"><path d="m53.6522 32.4352c5.883 0 10.6522-4.7691 10.6522-10.6522 0-5.883-4.7692-10.6521-10.6522-10.6521-5.8831 0-10.6522 4.7691-10.6522 10.6521 0 5.8831 4.7691 10.6522 10.6522 10.6522z"/><path d="m11.1309 62.8693 6.6956-9.3831c.1177-.1648.2672-.3044.4396-.4107s.3643-.1771.5644-.2083.4044-.0221.601.0267.3814.1364.5437.2575l3.6339 2.7179c.3229.2421.7287.3461 1.1283.289.3995-.0571.76-.2705 1.0022-.5934l8.2173-10.9565"/><path d="m55.938 11.377-2.2857 10.4056 10.5731-1.2935"/><path d="m27.87 11.1309h-15.2174c-.8404 0-1.5217.6813-1.5217 1.5217v18.2609c0 .8404.6813 1.5217 1.5217 1.5217h15.2174c.8404 0 1.5217-.6813 1.5217-1.5217v-18.2609c0-.8404-.6813-1.5217-1.5217-1.5217z"/><path d="m17.2178 17.2178h6.0869"/><path d="m17.2178 23.3047h3.0435"/><path d="m68.9565 2h-63.91302c-1.68087 0-3.04348 1.36261-3.04348 3.04348v63.91302c0 1.6809 1.36261 3.0435 3.04348 3.0435h63.91302c1.6809 0 3.0435-1.3626 3.0435-3.0435v-63.91302c0-1.68087-1.3626-3.04348-3.0435-3.04348z"/><path d="m43 44v19h21"/><path d="m48 49h4c.2652 0 .5196.0922.7071.2563s.2929.3866.2929.6187v13.125h-6v-13.125c0-.2321.1054-.4546.2929-.6187s.4419-.2563.7071-.2563z"/><path d="m56.8333 54h3.3334c.221 0 .4329.0948.5892.2636s.2441.3977.2441.6364v8.1h-5v-8.1c0-.2387.0878-.4676.2441-.6364s.3682-.2636.5892-.2636z"/></g></svg>