<svg width="72" height="72" viewBox="0 0 72 72" fill="none" xmlns="http://www.w3.org/2000/svg">
<path fill-rule="evenodd" clip-rule="evenodd" d="M20.4375 63.9375C22.3015 63.9375 23.8125 62.4265 23.8125 60.5625C23.8125 58.6985 22.3015 57.1875 20.4375 57.1875C18.5735 57.1875 17.0625 58.6985 17.0625 60.5625C17.0625 62.4265 18.5735 63.9375 20.4375 63.9375Z" stroke="#0066FF" stroke-width="2.5" stroke-linecap="round" stroke-linejoin="round"/>
<path fill-rule="evenodd" clip-rule="evenodd" d="M57.4309 31.4071C54.7898 31.4071 52.6487 29.3024 52.6487 26.7062C52.6487 24.1099 54.7898 22.0052 57.4309 22.0052H63.4087C63.8615 22.0052 64.2755 21.7537 64.478 21.3555C64.6805 20.9574 64.6368 20.4809 64.3651 20.1248C60.2019 14.7197 52.4981 13.3944 46.7149 17.0884C40.9318 20.7823 39.034 28.2406 42.367 34.176L23.1689 53.0316C19.4863 51.7464 15.3893 53.1376 13.2986 56.3829C11.208 59.6282 11.6803 63.8638 14.4366 66.5868V66.5868V66.5868C17.2031 69.3096 21.5201 69.7833 24.8292 67.7271C28.1383 65.671 29.5553 61.6346 28.2404 58.0099L47.4242 39.1637C50.6647 40.9465 54.521 41.2993 58.0406 40.1351C61.5602 38.971 64.4151 36.3983 65.9002 33.0525C66.0615 32.6892 66.0256 32.2706 65.8049 31.9389C65.5841 31.6073 65.2082 31.4073 64.8051 31.4071H57.4309Z" stroke="#0066FF" stroke-width="2.5" stroke-linecap="round" stroke-linejoin="round"/>
<path d="M10.5 29C10.9337 25.885 12.8658 23.1513 15.7109 21.6271C16.0558 21.4329 16.4888 21.4634 16.801 21.7038C17.1131 21.9441 17.2405 22.3451 17.1215 22.7132C16.5378 24.6012 16.7608 26.6363 17.7407 28.3644C18.7175 28.4775 19.6656 27.9983 20.1265 27.1586C20.2774 26.9212 20.53 26.7611 20.8156 26.722C21.1011 26.683 21.3898 26.769 21.6029 26.9567C22.2234 27.5211 22.7014 28.2157 23 28.9869" stroke="#0066FF" stroke-width="2.5" stroke-linecap="round" stroke-linejoin="round"/>
<path d="M32.1603 29C33.7474 24.8587 33.0594 20.2752 30.3103 16.6744H29.786L26.0357 20.9574C24.7798 17.4632 24.7699 13.6964 26.0075 10.1967C26.114 9.8968 26.0435 9.56806 25.821 9.32666C25.5986 9.08526 25.2554 8.96518 24.9128 9.00883C18.882 9.75532 13.6023 13.0753 10.6969 17.9483L8.02925 15.5798C7.82978 15.403 7.55875 15.3095 7.28078 15.3217C7.00282 15.3338 6.74285 15.4505 6.56286 15.6439C3.12171 19.3416 2.08547 24.4227 3.839 29" stroke="#0066FF" stroke-width="2.5" stroke-linecap="round" stroke-linejoin="round"/>
</svg>
