<svg width="32" height="32" viewBox="0 0 32 32" fill="none" xmlns="http://www.w3.org/2000/svg">
<path d="M30.189 23.491V8.384L16 0.872002L1.81097 8.425V23.491L15.958 31.128L30.189 23.491Z" fill="#9370B1"/>
<path d="M15.958 31.695L1.31097 23.789V8.126L16 0.305L30.69 8.083V23.79L15.958 31.695ZM2.31097 23.193L15.959 30.56L29.689 23.192V8.685L16 1.438L2.31097 8.726V23.193Z" fill="white"/>
<path d="M22.86 19.811L15.737 16.306L8.94897 19.811L15.515 23.651L22.86 19.811Z" fill="#735796"/>
<path d="M23.082 12.077L16.238 8.348L8.72596 12.021L8.55896 19.7L15.904 16.027L22.86 19.811L23.082 12.077Z" fill="#735796"/>
<path d="M23.7619 27.122H22.7619V12.355L9.04395 4.984L9.51795 4.104L23.7619 11.757V27.122Z" fill="white"/>
<path d="M9.11298 27.122H8.11298V11.757L22.357 4.104L22.831 4.984L9.11298 12.355V27.122Z" fill="white"/>
<path d="M8.84931 11.6159L2.0459 7.98556L1.5751 8.86786L8.37851 12.4982L8.84931 11.6159Z" fill="white"/>
<path d="M30.4242 8.82284L29.9552 7.93964L23.03 11.6171L23.499 12.5003L30.4242 8.82284Z" fill="white"/>
<path d="M15.958 24.349L1.57599 16.713L2.04499 15.83L15.959 23.218L29.915 15.87L30.38 16.755L15.958 24.349Z" fill="white"/>
<path d="M16.4579 8.133H15.4579V16.076H16.4579V8.133Z" fill="white"/>
<path d="M16.4579 23.779H15.4579V31.038H16.4579V23.779Z" fill="white"/>
<path d="M23.0059 20.369L15.9199 16.641L8.83395 20.346L8.37195 19.459L15.9219 15.512L23.4719 19.484L23.0059 20.369Z" fill="white"/>
</svg>
