<svg fill="none" height="50" viewBox="0 0 50 50" width="50" xmlns="http://www.w3.org/2000/svg"><path d="m36.3137 19.2934-.9811-.1933-.0008.0037zm-.2026-.8515.7856-.6188-.0001-.0002zm-.764-.3752v1h.0011zm-12.1205 0v-1h-.0012zm-.9667-.8178-.9822.188.001.005zm-.2739-1.4311.9822-.188-.001-.0051zm-.9667-.8178v1h.0013zm-6.3657 0-.0011 1h.0011zm-.7641.3752-.7854-.6189-.0002.0001zm-.2026.8515.9819-.1893-.0007-.0037zm2.5621 13.2888-.9819.1894.0007.0036zm.9666.8178v-1l-.0013.0001zm16.1607 0 .0001-1h-.0001zm.9657-.8178.9812.1932.0007-.0039zm-17.0083-16.8488c0 .5523.4477 1 1 1 .5522 0 1-.4477 1-1zm15.3333 3c0 .5523.4477 1 1 1s1-.4477 1-1zm-17.6667 31.6667c-.5523 0-1 .4477-1 1 0 .5522.4477 1 1 1zm20.6667 2c.5523 0 1-.4478 1-1 0-.5523-.4477-1-1-1zm-9.6667-11.6667c0-.5523-.4477-1-1-1s-1 .4477-1 1zm-2 10c0 .5523.4477 1 1 1s1-.4477 1-1zm13.2946-28.1801c.1149-.5833-.0278-1.1933-.3982-1.6635l-1.5711 1.2376c.0017.0022.0046.0069.0065.0148.0019.0078.0021.0163.0005.0246zm-.3983-1.6637c-.3724-.4725-.9399-.7569-1.5506-.7562l.0022 2c-.0081 0-.0148-.002-.0191-.0041-.0042-.002-.0048-.0036-.0034-.0018zm-1.5495-.7562h-12.1205v2h12.1205zm-12.1217 0c.0054 0 .0113.0011.0163.003.0046.0017.0066.0033.0068.0035.0002.0001-.001-.0008-.0025-.0034-.0014-.0023-.0034-.0066-.0049-.0139l-1.9624.386c.1812.9209.9772 1.626 1.9492 1.6248zm.0167-.0058-.2739-1.4311-1.9644.376.2739 1.4311zm-.2749-1.4362c-.1813-.9209-.9773-1.6259-1.9492-1.6247l.0026 2c-.0055 0-.0114-.0011-.0164-.0029-.0046-.0018-.0066-.0034-.0068-.0036-.0002-.0001.001.0008.0025.0034.0014.0023.0035.0067.0049.0141zm-1.9479-1.6247h-6.3657v2h6.3657zm-6.3646 0c-.6106-.0007-1.1782.2837-1.5506.7563l1.5708 1.2379c.0014-.0018.0007-.0003-.0034.0018-.0042.002-.011.004-.019.004zm-1.5508.7564c-.3705.4704-.5129 1.0803-.3982 1.6633l1.9624-.386c-.0017-.0084-.0014-.0171.0005-.025.0018-.0078.0047-.0125.0064-.0147zm-.3989 1.6596 2.5621 13.2889 1.9638-.3787-2.5621-13.2888zm2.5628 13.2925c.1811.9209.9771 1.6261 1.9491 1.6248l-.0026-1.9999c.0055-.0001.0114.0011.0164.0029.0046.0017.0067.0034.0069.0036.0001.0001-.001-.0008-.0025-.0034-.0014-.0023-.0035-.0066-.0049-.014zm1.9478 1.6248h16.1607v-2h-16.1607zm16.1605 0c.9711.0002 1.7659-.7045 1.9471-1.6246l-1.9624-.3863c-.0014.0074-.0035.0117-.0049.014-.0015.0026-.0027.0036-.0025.0035.0001-.0002.0022-.0019.0068-.0036.0049-.0018.0108-.003.0162-.003zm1.9478-1.6285c.4069-2.1118 1.4909-7.7308 1.9717-10.2219l-1.9638-.3791c-.4808 2.4912-1.5648 8.1105-1.9718 10.2225zm-15.9902-17.0381v-3.99996h-2v3.99996zm0-3.99996v.00002.00005c0 .00005 0 .00011-.0001.0002v.00071c-.0001.00061-.0002.00135-.0004.00217-.0003.00172-.0008.00323-.0013.00437-.001.0022-.0013.00185.0005.00012.0017-.00173.0044-.00366.0079-.00509.0028-.00117.0075-.0026.0156-.0026v-2c-1.0962 0-2.0222.87493-2.0222 2.00005zm.0222-.00005h13.2888v-2h-13.2888zm13.2888 0c.0081 0 .0128.00143.0156.00261.0035.00143.0062.00337.008.00512s.0014.0021.0005-.0001c-.0005-.00115-.001-.00267-.0014-.00439-.0004-.00179-.0004-.00299-.0004-.00319h2c0-1.12523-.9262-2.00005-2.0223-2.00005zm.0223.00005v6.99996h2v-6.99996zm-17.6667 40.66666h20.6667v-2h-20.6667zm9-11.6667v10h2v-10zm-18.18143-35.00001h38.36293v-2.000003h-38.36293zm38.36293 0c1.7473 0 3.1519 1.40479 3.1519 3.12307h2c0-2.83595-2.3132-5.123073-5.1519-5.123073zm3.1519 3.12307v27.75384h2v-27.75384zm0 27.75384c0 1.7183-1.4046 3.1231-3.1519 3.1231v2c2.8387 0 5.1519-2.2871 5.1519-5.1231zm-3.1519 3.1231h-38.36293v2h38.36293zm-38.36293 0c-1.74731 0-3.15188-1.4048-3.15188-3.1231h-1.999998c0 2.836 2.313148 5.1231 5.151878 5.1231zm-3.15188-3.1231v-27.75384h-1.999998v27.75384zm0-27.75384c0-1.71827 1.40457-3.12307 3.15188-3.12307v-2.000003c-2.83873 0-5.151878 2.287123-5.151878 5.123073z" fill="#06f"/></svg>