<svg fill="none" height="72" viewBox="0 0 72 72" width="72" xmlns="http://www.w3.org/2000/svg"><g stroke="#06f" stroke-linecap="round" stroke-linejoin="round" stroke-width="2.5"><path d="m25.5 13.4941h45"/><path d="m25.5 37.4941h45"/><path d="m25.5 61.4941h45"/><path d="m10.5 7.49414h-6c-1.65685 0-3 1.34315-3 2.99996v6c0 1.6569 1.34315 3 3 3h6c1.6569 0 3-1.3431 3-3v-6c0-1.65681-1.3431-2.99996-3-2.99996z"/><path d="m10.5 31.4941h-6c-1.65685 0-3 1.3432-3 3v6c0 1.6569 1.34315 3 3 3h6c1.6569 0 3-1.3431 3-3v-6c0-1.6568-1.3431-3-3-3z"/><path d="m10.5 55.4941h-6c-1.65685 0-3 1.3432-3 3v6c0 1.6569 1.34315 3 3 3h6c1.6569 0 3-1.3431 3-3v-6c0-1.6568-1.3431-3-3-3z"/></g></svg>