<svg fill="none" height="48" viewBox="0 0 48 48" width="48" xmlns="http://www.w3.org/2000/svg"><g stroke="#06f" stroke-linecap="round" stroke-linejoin="round" stroke-width="2"><path d="m47 47-5-6.86v-9.14c.1-3.56-5.16-7.72-9-11"/><path d="m37.0404 35.0002-5.38-5.54c-.3978-.3978-.9374-.6213-1.5-.6213s-1.1022.2235-1.5.6213-.6213.9374-.6213 1.5.2235 1.1022.6213 1.5l5.34 6.54v3c0 2 3.12 5 3.12 5"/><path d="m28 41h-25c-.53043 0-1.03914-.2107-1.41421-.5858-.37508-.3751-.58579-.8838-.58579-1.4142v-36c0-.53043.21071-1.03914.58579-1.41421.37507-.37508.88378-.58579 1.41421-.58579h28c.5304 0 1.0391.21071 1.4142.58579.3751.37507.5858.88378.5858 1.41421v27.84"/><path d="m19 7h6v6"/><path d="m25 7-17 16"/><path d="m9 28v7"/><path d="m15 23v12"/><path d="m21 19v16"/></g></svg>