<svg width="48" height="48" viewBox="0 0 48 48" fill="none" xmlns="http://www.w3.org/2000/svg">
<path fill-rule="evenodd" clip-rule="evenodd" d="M24 43.4838C24 43.4838 28.612 36.4598 44.034 35.9018C45.1225 35.877 45.9938 34.9907 46 33.9018V6.52185C46.0001 5.98476 45.7842 5.47021 45.4008 5.09403C45.0175 4.71784 44.499 4.51164 43.962 4.52185C28.6 5.09785 24 12.1018 24 12.1018C24 12.1018 19.4 5.10185 4.038 4.52185C3.50101 4.51164 2.98249 4.71784 2.59916 5.09403C2.21583 5.47021 1.9999 5.98476 2 6.52185V33.9038C2.00621 34.9927 2.87746 35.879 3.966 35.9038C19.388 36.4598 24 43.4838 24 43.4838Z" stroke="#0066FF" stroke-width="2" stroke-linecap="round" stroke-linejoin="round"/>
<path fill-rule="evenodd" clip-rule="evenodd" d="M21.3661 30.4664L16 31.9998L17.5332 26.6329L26.7066 17.4605C27.3912 16.7757 28.3892 16.5083 29.3245 16.7589C30.2598 17.0096 30.9903 17.7403 31.2409 18.6757C31.4915 19.6111 31.2241 20.6093 30.5395 21.2941L21.3661 30.4664Z" stroke="#0066FF" stroke-width="2" stroke-linecap="round" stroke-linejoin="round"/>
<path d="M25.3333 18.6665L29.3332 22.6665" stroke="#0066FF" stroke-width="2" stroke-linecap="round" stroke-linejoin="round"/>
<path d="M17.3333 26.6665L21.3333 30.6665" stroke="#0066FF" stroke-width="2" stroke-linecap="round" stroke-linejoin="round"/>
</svg>
