<svg fill="none" height="72" viewBox="0 0 72 72" width="72" xmlns="http://www.w3.org/2000/svg"><g stroke="#06f" stroke-linecap="round" stroke-linejoin="round" stroke-width="2.5"><path d="m70.5 70.5h-67.5c-.39782 0-.77936-.158-1.06066-.4393s-.43934-.6629-.43934-1.0607v-67.5"/><path d="m18.0117 49.5c0 1.1935.4741 2.3381 1.318 3.182.844.8439 1.9885 1.318 3.182 1.318s2.3381-.4741 3.182-1.318 1.318-1.9885 1.318-3.182-.4741-2.3381-1.318-3.182-1.9885-1.318-3.182-1.318-2.338.4741-3.182 1.318c-.8439.8439-1.318 1.9885-1.318 3.182z"/><path d="m50.7598 24.9447 12.228-15.62097"/><path d="m29.8105 22.3857 13.854 4.944"/><path d="m1.51172 35.3426 20.15698-12.015"/><path d="m48.9092 47.2561 13.215-7.488"/><path d="m27.0117 49.5h13.5"/><path d="m1.51172 63.0003 17.13598-11.202"/><path d="m21.0117 21c0 1.1935.4741 2.3381 1.318 3.182.844.8439 1.9885 1.318 3.182 1.318s2.3381-.4741 3.182-1.318 1.318-1.9885 1.318-3.182-.4741-2.3381-1.318-3.182-1.9885-1.318-3.182-1.318-2.338.4741-3.182 1.318c-.8439.8439-1.318 1.9885-1.318 3.182z"/><path d="m43.5117 28.5c0 1.1935.4741 2.3381 1.318 3.182.844.8439 1.9885 1.318 3.182 1.318s2.3381-.4741 3.182-1.318 1.318-1.9885 1.318-3.182-.4741-2.3381-1.318-3.182-1.9885-1.318-3.182-1.318-2.338.4741-3.182 1.318c-.8439.8439-1.318 1.9885-1.318 3.182z"/><path d="m61.5117 6c0 1.19347.4741 2.33807 1.318 3.18198.844.84392 1.9885 1.31802 3.182 1.31802s2.3381-.4741 3.182-1.31802c.8439-.84391 1.318-1.98851 1.318-3.18198s-.4741-2.33807-1.318-3.18198-1.9885-1.31802-3.182-1.31802-2.338.47411-3.182 1.31802c-.8439.84391-1.318 1.98851-1.318 3.18198z"/><path d="m61.5117 37.5c0 1.1935.4741 2.3381 1.318 3.182.844.8439 1.9885 1.318 3.182 1.318s2.3381-.4741 3.182-1.318 1.318-1.9885 1.318-3.182-.4741-2.3381-1.318-3.182-1.9885-1.318-3.182-1.318-2.338.4741-3.182 1.318c-.8439.8439-1.318 1.9885-1.318 3.182z"/><path d="m40.5117 49.5c0 1.1935.4741 2.3381 1.318 3.182.844.8439 1.9885 1.318 3.182 1.318s2.3381-.4741 3.182-1.318 1.318-1.9885 1.318-3.182-.4741-2.3381-1.318-3.182-1.9885-1.318-3.182-1.318-2.338.4741-3.182 1.318c-.8439.8439-1.318 1.9885-1.318 3.182z"/></g></svg>