<svg width="49" height="49" viewBox="0 0 49 49" fill="none" xmlns="http://www.w3.org/2000/svg">
<path d="M35 29L35 41" stroke="#0066FF" stroke-width="2" stroke-linecap="round" stroke-linejoin="round"/>
<path d="M35 41L39.5 36.5" stroke="#0066FF" stroke-width="2" stroke-linecap="round" stroke-linejoin="round"/>
<path d="M35 41L30.5 36.5" stroke="#0066FF" stroke-width="2" stroke-linecap="round" stroke-linejoin="round"/>
<path d="M11 41H17" stroke="#0066FF" stroke-width="2" stroke-linecap="round" stroke-linejoin="round"/>
<path d="M17.002 31V41" stroke="#0066FF" stroke-width="2" stroke-linecap="round" stroke-linejoin="round"/>
<path d="M6.5 40C6.22386 40 6 40.2239 6 40.5C6 40.7761 6.22386 41 6.5 41C6.77614 41 7 40.7761 7 40.5C7 40.2239 6.77614 40 6.5 40V40" stroke="#0066FF" stroke-width="2" stroke-linecap="round" stroke-linejoin="round"/>
<path d="M1.5 40C1.22386 40 1 40.2239 1 40.5C1 40.7761 1.22386 41 1.5 41C1.77614 41 2 40.7761 2 40.5C2 40.2239 1.77614 40 1.5 40V40" stroke="#0066FF" stroke-width="2" stroke-linecap="round" stroke-linejoin="round"/>
<path d="M8.5 25.5C8.22386 25.5 8 25.7239 8 26C8 26.2761 8.22386 26.5 8.5 26.5C8.77614 26.5 9 26.2761 9 26C9 25.7239 8.77614 25.5 8.5 25.5V25.5" stroke="#0066FF" stroke-width="2" stroke-linecap="round" stroke-linejoin="round"/>
<path d="M13.5 25.5C13.2239 25.5 13 25.7239 13 26C13 26.2761 13.2239 26.5 13.5 26.5C13.7761 26.5 14 26.2761 14 26C14 25.7239 13.7761 25.5 13.5 25.5V25.5" stroke="#0066FF" stroke-width="2" stroke-linecap="round" stroke-linejoin="round"/>
<path d="M25 21H6C3.23858 21 1 23.2386 1 26C1 28.7614 3.23858 31 6 31H19" stroke="#0066FF" stroke-width="2" stroke-linecap="round" stroke-linejoin="round"/>
<path d="M8.5 15.5C8.22386 15.5 8 15.7239 8 16C8 16.2761 8.22386 16.5 8.5 16.5C8.77614 16.5 9 16.2761 9 16C9 15.7239 8.77614 15.5 8.5 15.5V15.5" stroke="#0066FF" stroke-width="2" stroke-linecap="round" stroke-linejoin="round"/>
<path d="M13.5 15.5C13.2239 15.5 13 15.7239 13 16C13 16.2761 13.2239 16.5 13.5 16.5C13.7761 16.5 14 16.2761 14 16C14 15.7239 13.7761 15.5 13.5 15.5V15.5" stroke="#0066FF" stroke-width="2" stroke-linecap="round" stroke-linejoin="round"/>
<path d="M35 16C35 13.2386 32.7614 11 30 11H6C3.23858 11 1 13.2386 1 16C1 18.7614 3.23858 21 6 21H25" stroke="#0066FF" stroke-width="2" stroke-linecap="round" stroke-linejoin="round"/>
<path d="M8.5 5.5C8.22386 5.5 8 5.72386 8 6C8 6.27614 8.22386 6.5 8.5 6.5C8.77614 6.5 9 6.27614 9 6C9 5.72386 8.77614 5.5 8.5 5.5V5.5" stroke="#0066FF" stroke-width="2" stroke-linecap="round" stroke-linejoin="round"/>
<path d="M13.5 5.5C13.2239 5.5 13 5.72386 13 6C13 6.27614 13.2239 6.5 13.5 6.5C13.7761 6.5 14 6.27614 14 6C14 5.72386 13.7761 5.5 13.5 5.5V5.5" stroke="#0066FF" stroke-width="2" stroke-linecap="round" stroke-linejoin="round"/>
<path fill-rule="evenodd" clip-rule="evenodd" d="M35 6C35 4.67392 34.4732 3.40215 33.5355 2.46447C32.5979 1.52678 31.3261 1 30 1H6C3.23858 1 1 3.23858 1 6C1 8.76142 3.23858 11 6 11H30C32.7614 11 35 8.76142 35 6Z" stroke="#0066FF" stroke-width="2" stroke-linecap="round" stroke-linejoin="round"/>
<path fill-rule="evenodd" clip-rule="evenodd" d="M35.3333 47.333C41.9607 47.333 47.3333 41.9604 47.3333 35.333C47.3333 28.7056 41.9607 23.333 35.3333 23.333C28.7058 23.333 23.3333 28.7056 23.3333 35.333C23.3333 41.9604 28.7058 47.333 35.3333 47.333Z" stroke="#0066FF" stroke-width="2" stroke-linecap="round" stroke-linejoin="round"/>
</svg>
