<svg fill="none" height="72" viewBox="0 0 73 72" width="73" xmlns="http://www.w3.org/2000/svg"><g stroke="#06f" stroke-linecap="round" stroke-linejoin="round" stroke-width="2.5"><path clip-rule="evenodd" d="m61.9569 47.68c.1281-.6085-.0328-1.2405-.4378-1.7213-.4052-.4808-1.0118-.7594-1.6519-.7587h-26.2016c-1.0132.0012-1.887-.6901-2.0897-1.6533l-.5923-2.8933c-.2026-.9632-1.0764-1.6545-2.0897-1.6534h-13.7611c-.6401-.0006-1.2467.2779-1.6519.7586-.405.4809-.5659 1.113-.4378 1.7215l5.5385 26.8665c.2026.9632 1.0765 1.6546 2.0897 1.6534h34.9355c1.0125.0002 1.8851-.691 2.0875-1.6534.8799-4.2696 3.2231-15.6301 4.2626-20.6666z" fill-rule="evenodd"/><path d="m21 34.6251v-8.5001c0-1.1736.9552-2.125 2.1333-2.125h27.7334c1.1782 0 2.1333.9514 2.1333 2.125v14.875"/><path d="m27 30h18"/><path d="m36 37.0001h9"/><path clip-rule="evenodd" d="m39.5 15.9999c1.3807 0 2.5-1.1193 2.5-2.5s-1.1193-2.5-2.5-2.5-2.5 1.1193-2.5 2.5 1.1193 2.5 2.5 2.5z" fill-rule="evenodd"/><path clip-rule="evenodd" d="m28.5 17c1.3807 0 2.5-1.1193 2.5-2.5s-1.1193-2.5-2.5-2.5-2.5 1.1193-2.5 2.5 1.1193 2.5 2.5 2.5z" fill-rule="evenodd"/><path d="m31 14.9999v-9.13787c.0003-.70961.4651-1.33315 1.1392-1.52828l7.8572-2.27254c.474-.13722.9842-.04132 1.378.25902.3937.30033.6254.77027.6256 1.26925v9.81852"/><path clip-rule="evenodd" d="m2 11.4324c-.00022-.5161.23771-.9924.62291-1.2466.3852-.25421.85789-.24694 1.2372.019l9.54379 6.0658c.3698.2587.5961.7246.5961 1.2276 0 .5028-.2263.9687-.5961 1.2274l-9.54379 6.0698c-.37931.266-.852.2732-1.2372.0191-.3852-.2542-.62313-.7305-.62291-1.2467z" fill-rule="evenodd"/><path clip-rule="evenodd" d="m59.5 22.9999c4.1422 0 7.5-3.3578 7.5-7.5s-3.3578-7.50002-7.5-7.50002-7.5 3.35782-7.5 7.50002 3.3578 7.5 7.5 7.5z" fill-rule="evenodd"/><path d="m71 27-6-6"/></g></svg>