<svg fill="none" height="48" viewBox="0 0 48 48" width="48" xmlns="http://www.w3.org/2000/svg"><g stroke="#06f" stroke-linecap="round" stroke-linejoin="round" stroke-width="2"><path d="m31.5 24 6 6-6 6"/><path d="m16.5 24-6 6 6 6"/><path d="m27 24-6 12"/><path d="m43 6h-38c-2.20914 0-4 1.79086-4 4v28c0 2.2091 1.79086 4 4 4h38c2.2091 0 4-1.7909 4-4v-28c0-2.20914-1.7909-4-4-4z"/><path d="m1 16h46"/><path d="m8 10.5c.09889 0 .19556.0293.27779.0843.08222.0549.14631.133.18415.2244.03784.0913.04775.1919.02845.2888-.01929.097-.06691.1861-.13684.2561-.06992.0699-.15901.1175-.256.1368s-.19753.0094-.28889-.0285c-.09136-.0378-.16945-.1019-.22439-.1841-.05495-.0822-.08427-.1789-.08427-.2778 0-.1326.05268-.2598.14645-.3536.09376-.0937.22094-.1464.35355-.1464"/><path d="m14 10.5c.0989 0 .1956.0293.2778.0843.0822.0549.1463.133.1841.2244.0379.0913.0478.1919.0285.2888-.0193.097-.0669.1861-.1368.2561-.07.0699-.1591.1175-.2561.1368-.0969.0193-.1975.0094-.2888-.0285-.0914-.0378-.1695-.1019-.2244-.1841-.055-.0822-.0843-.1789-.0843-.2778 0-.1326.0527-.2598.1464-.3536.0938-.0937.221-.1464.3536-.1464z"/><path d="m20 10.5c.0989 0 .1956.0293.2778.0843.0822.0549.1463.133.1841.2244.0379.0913.0478.1919.0285.2888-.0193.097-.0669.1861-.1368.2561-.07.0699-.1591.1175-.2561.1368-.0969.0193-.1975.0094-.2888-.0285-.0914-.0378-.1695-.1019-.2244-.1841-.055-.0822-.0843-.1789-.0843-.2778 0-.1326.0527-.2598.1464-.3536.0938-.0937.221-.1464.3536-.1464z"/></g></svg>