<svg fill="none" height="48" viewBox="0 0 49 48" width="49" xmlns="http://www.w3.org/2000/svg"><g stroke="#06f" stroke-linecap="round" stroke-linejoin="round" stroke-width="2"><path d="m23.8055 10c-.3713-.0002-.7353-.10377-1.0511-.2991-.3157-.19534-.5709-.47474-.7369-.8069l-1.896-3.788c-.166-.33216-.4212-.61156-.737-.8069-.3157-.19533-.6797-.2989-1.051-.2991h-15c-.53044 0-1.03914.21071-1.41422.58579-.37507.37507-.58578.88378-.58578 1.41421v36c0 .5304.21071 1.0391.58578 1.4142.37508.3751.88378.5858 1.41422.5858h42c.5304 0 1.0391-.2107 1.4142-.5858s.5858-.8838.5858-1.4142v-30c0-.5304-.2107-1.0391-.5858-1.4142s-.8838-.5858-1.4142-.5858z"/><path d="m29.3335 19 7 7-7 7"/><path d="m19.3335 19-7 7 7 7"/></g></svg>