<svg fill="none" height="74" viewBox="0 0 74 74" width="74" xmlns="http://www.w3.org/2000/svg"><g stroke="#06f" stroke-linecap="round" stroke-linejoin="round" stroke-width="2.5"><g clip-rule="evenodd" fill-rule="evenodd"><path d="m15 62.375c0-.7594-.7462-1.375-1.6667-1.375h-6.66663c-.92048 0-1.66667.6156-1.66667 1.375v9.625h10z"/><path d="m33 48.3889c0-.7671-.7462-1.3889-1.6667-1.3889h-6.6666c-.9205 0-1.6667.6218-1.6667 1.3889v23.6111h10z"/><path d="m51 56.4167c0-.7824-.7462-1.4167-1.6667-1.4167h-6.6666c-.9205 0-1.6667.6343-1.6667 1.4167v15.5833h10z"/><path d="m69 34.3929c0-.7693-.7462-1.3929-1.6667-1.3929h-6.6666c-.9205 0-1.6667.6236-1.6667 1.3929v37.6071h10z"/></g><path d="m13 26 7-7"/><path d="m31 17 7 4"/><path d="m48 21 13-9"/><path clip-rule="evenodd" d="m66 14c3.3137 0 6-2.6863 6-6 0-3.31371-2.6863-6-6-6s-6 2.68629-6 6c0 3.3137 2.6863 6 6 6z" fill-rule="evenodd"/><path clip-rule="evenodd" d="m43.0117 30.2803c3.3137 0 6-2.6863 6-6s-2.6863-6-6-6-6 2.6863-6 6 2.6863 6 6 6z" fill-rule="evenodd"/><path clip-rule="evenodd" d="m25.0117 20.1997c3.3137 0 6-2.6863 6-6s-2.6863-5.99999-6-5.99999-6 2.68629-6 5.99999 2.6863 6 6 6z" fill-rule="evenodd"/><path clip-rule="evenodd" d="m8 36c3.3137 0 6-2.6863 6-6s-2.6863-6-6-6c-3.31371 0-6 2.6863-6 6s2.68629 6 6 6z" fill-rule="evenodd"/></g></svg>