<svg fill="none" height="50" viewBox="0 0 50 50" width="50" xmlns="http://www.w3.org/2000/svg"><g stroke="#06f" stroke-linecap="round" stroke-linejoin="round" stroke-width="2"><path d="m33.0003 44.3332c6.2593 0 11.3334-5.0741 11.3334-11.3334 0-6.2592-5.0741-11.3333-11.3334-11.3333-6.2592 0-11.3333 5.0741-11.3333 11.3333 0 6.2593 5.0741 11.3334 11.3333 11.3334z"/><path d="m38.3333 33h-11.3333"/><path d="m38.3333 37.6665h-11.3333"/><path d="m38.3333 29h-11.3333"/><path d="m18.0003 34.3332h-12.70368c-.96264 0-1.88585-.3827-2.56653-1.0638-.68069-.6811-1.0631-1.6049-1.0631-2.5681v-25.40295c0-.96322.38241-1.887 1.0631-2.5681.68068-.68111 1.60389-1.06375 2.56653-1.06375h25.40738c.9627 0 1.8859.38264 2.5666 1.06375.6807.6811 1.0631 1.60488 1.0631 2.5681v12.71145"/><path d="m1.66699 13h32.66671"/><path d="m1.66699 23.6665h18.00001"/><path d="m23.667 1.6665v18"/><path d="m12.333 1.6665v32.6667"/><path d="m48.3333 48.3333-7.3333-7.3333"/></g></svg>