<svg fill="none" height="74" viewBox="0 0 74 74" width="74" xmlns="http://www.w3.org/2000/svg"><g stroke="#06f" stroke-linecap="round" stroke-linejoin="round" stroke-width="2.5"><path d="m26.0886 51c-12.2825-.0627-22.57214-9.4231-23.93711-21.7755-1.364973-12.3524 6.62734-23.78159 18.59271-26.58813 11.9654-2.806539 24.1115 3.89912 28.2558 15.59953"/><path d="m26 13v15h9"/><g clip-rule="evenodd" fill-rule="evenodd"><path d="m66.2137 54.174h4.0037c.9845 0 1.7826-.7981 1.7826-1.7827v-1.7826c0-.9845-.7981-1.7825-1.7826-1.7825h-4.0055c-.3634-1.8069-.9628-3.5582-1.7826-5.2089l2.8325-2.8307c.696-.6962.696-1.8245 0-2.5207l-2.5277-2.5206c-.6961-.6958-1.8245-.6958-2.5206 0l-2.8343 2.8326c-1.6494-.8201-3.3994-1.4195-5.2053-1.7826v-4.0126c0-.9845-.7981-1.7827-1.7826-1.7827h-1.7826c-.9845 0-1.7826.7982-1.7826 1.7827v4.009c-1.8064.3632-3.5571.9625-5.207 1.7826l-2.8343-2.829c-.6962-.6958-1.8246-.6958-2.5207 0l-2.5223 2.5224c-.696.6961-.696 1.8245 0 2.5206l2.8343 2.8326c-.8193 1.6503-1.4186 3.4009-1.7826 5.207h-4.0109c-.9845 0-1.7826.7981-1.7826 1.7826v1.7826c0 .9845.7981 1.7826 1.7826 1.7826h4.0037c.364 1.8061.9634 3.5567 1.7826 5.207l-2.8343 2.8343c-.6959.6962-.6959 1.8245 0 2.5207l2.5295 2.5206c.6961.6958 1.8245.6958 2.5207 0l2.8325-2.8343c1.6506.8198 3.4019 1.4191 5.2088 1.7825v4.0109c0 .9845.7981 1.7826 1.7826 1.7826h1.7826c.9845 0 1.7826-.7981 1.7826-1.7826v-4.002c1.8056-.3637 3.5557-.963 5.2053-1.7825l2.8361 2.8325c.6961.6959 1.8245.6959 2.5206 0l2.5206-2.5206c.6959-.6961.6959-1.8245 0-2.5206l-2.8326-2.8344c.8225-1.6527 1.4243-3.4063 1.7898-5.2158z"/><path d="m51.5 60c4.6944 0 8.5-3.8055 8.5-8.4999 0-4.6946-3.8056-8.5001-8.5-8.5001s-8.5 3.8055-8.5 8.5001c0 4.6944 3.8056 8.4999 8.5 8.4999z"/></g></g></svg>