<svg fill="none" height="48" viewBox="0 0 48 48" width="48" xmlns="http://www.w3.org/2000/svg"><g stroke="#06f" stroke-linecap="round" stroke-linejoin="round" stroke-width="2"><path d="m30.5 9h-14l4-8h14z"/><path d="m11.5 31-9-5 9-5 9 5z"/><path d="m11.5 31v5"/><path d="m11.5 47c3.0376 0 5.5-2.4624 5.5-5.5s-2.4624-5.5-5.5-5.5c-3.03757 0-5.5 2.4624-5.5 5.5s2.46243 5.5 5.5 5.5z"/><path d="m36.5 31-9-5 9-5 9 5z"/><path d="m36.5 21v-2c0-.5304-.2107-1.0391-.5858-1.4142s-.8838-.5858-1.4142-.5858h-21c-.5304 0-1.0391.2107-1.4142.5858s-.5858.8838-.5858 1.4142v2"/><path d="m36.5 31v5"/><path d="m36.5 47c3.0376 0 5.5-2.4624 5.5-5.5s-2.4624-5.5-5.5-5.5-5.5 2.4624-5.5 5.5 2.4624 5.5 5.5 5.5z"/><path d="m24.5 9v8"/></g></svg>