<svg fill="none" height="74" viewBox="0 0 74 74" width="74" xmlns="http://www.w3.org/2000/svg"><g stroke="#06f" stroke-width="2.5"><g stroke-linecap="round" stroke-linejoin="round"><path d="m54.9697 20.667h8.6973"/><path d="m41 20.667h8.6333"/><path d="m49.6338 29.333h14.0334"/><path d="m41 29.333h3.3"/><path d="m52.2998 38.0001h11.3666"/><path d="m41 38.0001h5.972"/><path clip-rule="evenodd" d="m52.3053 23.3333c1.4728 0 2.6667-1.1939 2.6667-2.6667s-1.1939-2.6667-2.6667-2.6667c-1.4727 0-2.6666 1.1939-2.6666 2.6667s1.1939 2.6667 2.6666 2.6667z" fill-rule="evenodd"/><path clip-rule="evenodd" d="m46.9724 32.0003c1.4727 0 2.6666-1.1939 2.6666-2.6666 0-1.4728-1.1939-2.6667-2.6666-2.6667-1.4728 0-2.6667 1.1939-2.6667 2.6667 0 1.4727 1.1939 2.6666 2.6667 2.6666z" fill-rule="evenodd"/><path clip-rule="evenodd" d="m49.6384 40.6664c1.4728 0 2.6667-1.1939 2.6667-2.6667 0-1.4727-1.1939-2.6667-2.6667-2.6667-1.4727 0-2.6667 1.194-2.6667 2.6667 0 1.4728 1.194 2.6667 2.6667 2.6667z" fill-rule="evenodd"/><path clip-rule="evenodd" d="m20.5 26.9992c3.866 0 7-3.1338 7-6.9996s-3.134-6.9996-7-6.9996-7 3.1338-7 6.9996 3.134 6.9996 7 6.9996z" fill-rule="evenodd"/><path clip-rule="evenodd" d="m20.7 30.1105c-8.3571 0-11.7 5.4995-11.7 10.9993h23.3999c0-5.4998-3.3429-10.9993-11.6999-10.9993z" fill-rule="evenodd"/><path d="m22 71.9999h31"/><path d="m37 56.0001v15"/></g><path d="m65.7722 2.00012h-57.54439c-3.43952 0-6.22781 2.76894-6.22781 6.18461v41.63077c0 3.4157 2.78829 6.1846 6.22781 6.1846h57.54439c3.4395 0 6.2278-2.7689 6.2278-6.1846v-41.63077c0-3.41567-2.7883-6.18461-6.2278-6.18461z"/></g></svg>