<svg fill="none" height="48" viewBox="0 0 48 48" width="48" xmlns="http://www.w3.org/2000/svg"><g stroke="#06f" stroke-linecap="round" stroke-linejoin="round" stroke-width="2"><path d="m41 17v-8c0-.53043-.2107-1.03914-.5858-1.41421-.3751-.37508-.8838-.58579-1.4142-.58579h-19.764c-.3713-.0002-.7353-.10377-1.0511-.2991-.3157-.19534-.5709-.47474-.7369-.8069l-1.896-3.788c-.166-.33216-.4212-.61156-.7369-.8069-.3158-.19533-.6798-.2989-1.0511-.2991h-10.764c-.53043 0-1.03914.21071-1.41421.58579-.37508.37507-.58579.88378-.58579 1.41421v30c0 .5304.21071 1.0391.58579 1.4142.37507.3751.88378.5858 1.41421.5858h14"/><path d="m23 35c0 3.1826 1.2643 6.2348 3.5147 8.4853 2.2505 2.2504 5.3027 3.5147 8.4853 3.5147s6.2348-1.2643 8.4853-3.5147c2.2504-2.2505 3.5147-5.3027 3.5147-8.4853s-1.2643-6.2348-3.5147-8.4853c-2.2505-2.2504-5.3027-3.5147-8.4853-3.5147s-6.2348 1.2643-8.4853 3.5147c-2.2504 2.2505-3.5147 5.3027-3.5147 8.4853z"/><path d="m35 41v-12"/><path d="m35 29-4.5 4.5"/><path d="m35 29 4.5 4.5"/></g></svg>