<svg fill="none" height="74" viewBox="0 0 74 74" width="74" xmlns="http://www.w3.org/2000/svg"><g stroke="#06f" stroke-linecap="round" stroke-linejoin="round" stroke-width="2.5"><path d="m28 34c8.8366 0 16-7.1634 16-16 0-8.83656-7.1634-16-16-16s-16 7.16344-16 16c0 8.8366 7.1634 16 16 16z"/><path d="m40.5 66h-38.5c-.00009-5.5407 1.68011-10.9473 4.8126-15.4861s7.5656-7.99 12.6977-9.8852c5.1321-1.8953 10.7147-2.1428 15.9902-.7091 2.4796.6739 4.8349 1.7038 6.9995 3.0469"/><path d="m53 72h13"/><path d="m59 67v5"/><path d="m68.0989 47c1.0342 0 2.0261.4516 2.7573 1.2553.7314.8037 1.1422 1.8938 1.1422 3.0305v11.1771c.0301 1.1699-.3638 2.305-1.095 3.1558-.7313.8509-1.74 1.3476-2.8045 1.3813h-18.1979c-1.0638-.0344-2.0717-.5311-2.8028-1.3811-.731-.85-1.1254-1.984-1.0967-3.1532v-11.1799c0-1.1367.4108-2.2268 1.1421-3.0305s1.7232-1.2553 2.7574-1.2553z"/></g></svg>