<svg fill="none" height="49" viewBox="0 0 50 49" width="50" xmlns="http://www.w3.org/2000/svg"><g stroke="#06f" stroke-linecap="round" stroke-linejoin="round" stroke-width="2"><path d="m33.0003 43.3332c6.2593 0 11.3334-5.0741 11.3334-11.3334 0-6.2592-5.0741-11.3333-11.3334-11.3333-6.2592 0-11.3333 5.0741-11.3333 11.3333 0 6.2593 5.0741 11.3334 11.3333 11.3334z"/><path d="m38.3333 32h-11.3333"/><path d="m38.3333 36.6665h-11.3333"/><path d="m38.3333 28h-11.3333"/><path d="m48.3333 47.3333-7.3333-7.3333"/><path d="m18.333 28.6665h-16.66666"/><path d="m36.333 18.3332v-4.8c0-.2299.1054-.4503.2929-.6129.1875-.1625.4419-.2538.7071-.2538h4c.2652 0 .5196.0913.7071.2538.1876.1626.2929.383.2929.6129v7.8"/><path d="m25.667 20.3332v-8.7667c0-.2387.1053-.4676.2929-.6364.1875-.1688.4419-.2636.7071-.2636h4c.2652 0 .5196.0948.7071.2636s.2929.3977.2929.6364v6.4333"/><path d="m14.333 28.6668v-14.375c0-.2541.1054-.4979.2929-.6776s.4419-.2807.7071-.2807h4c.2652 0 .5196.101.7071.2807.1876.1797.2929.4235.2929.6776v10.375"/><path d="m3.66699 28.6668v-26.42219c0-.24164.10536-.47339.2929-.64426.18753-.17086.44189-.26685.7071-.26685h4c.26522 0 .51957.09599.70711.26685.18754.17087.29289.40262.29289.64426v26.42219"/></g></svg>