<svg width="73" height="72" viewBox="0 0 73 72" fill="none" xmlns="http://www.w3.org/2000/svg">
<path fill-rule="evenodd" clip-rule="evenodd" d="M2 20.9941C2 19.3373 3.34315 17.9941 5 17.9941H68C69.6569 17.9941 71 19.3373 71 20.9941V62.9941C71 64.651 69.6569 65.9941 68 65.9941H5C3.34315 65.9941 2 64.651 2 62.9941V20.9941Z" stroke="#0066FF" stroke-width="2.5" stroke-linecap="round" stroke-linejoin="round"/>
<path d="M26 18V12C26.0099 8.69039 28.6904 6.00988 32 6H41C44.3096 6.00988 46.9901 8.69039 47 12V18" stroke="#0066FF" stroke-width="2.5" stroke-linecap="round" stroke-linejoin="round"/>
<path fill-rule="evenodd" clip-rule="evenodd" d="M50.7982 43.221C50.4508 42.9414 50.2459 42.5218 50.2389 42.0759C50.232 41.6301 50.4237 41.2043 50.7622 40.914L52.5802 39.357C52.8515 39.1236 53.1973 38.9948 53.5552 38.994H57.4552C58.0233 38.994 58.5427 38.673 58.7968 38.1648C59.0509 37.6566 58.9961 37.0485 58.6552 36.594C56.6771 33.9471 53.4004 32.6071 50.1345 33.1095C46.8686 33.612 44.1461 35.8749 43.0552 38.994H29.9482C28.6876 35.4071 25.3021 33.005 21.5002 33C18.7722 33.0949 16.2257 34.3906 14.5432 36.54C14.1739 36.9881 14.0964 37.609 14.3441 38.1341C14.5919 38.6592 15.1205 38.9942 15.7012 38.994H19.4452C19.8031 38.9948 20.1489 39.1236 20.4202 39.357L22.2382 40.914C22.5766 41.2043 22.7684 41.6301 22.7614 42.0759C22.7544 42.5218 22.5495 42.9414 22.2022 43.221L20.4022 44.664C20.1358 44.8777 19.8046 44.9941 19.4632 44.994H15.7012C15.1205 44.9938 14.5919 45.3288 14.3441 45.8539C14.0964 46.379 14.1739 46.9999 14.5432 47.448C16.2225 49.6029 18.7699 50.9034 21.5002 51C25.3037 50.9941 28.6897 48.5893 29.9482 45H43.0522C44.1414 48.1206 46.8641 50.3852 50.131 50.8878C53.3978 51.3904 56.6753 50.0489 58.6522 47.4C58.9931 46.9455 59.0479 46.3374 58.7938 45.8292C58.5397 45.321 58.0203 45 57.4522 45H53.5282C53.1867 45.0001 52.8555 44.8837 52.5892 44.67L50.7982 43.221Z" stroke="#0066FF" stroke-width="2.5" stroke-linecap="round" stroke-linejoin="round"/>
</svg>
