<svg fill="none" height="48" viewBox="0 0 49 48" width="49" xmlns="http://www.w3.org/2000/svg"><g style="fill-rule:evenodd;clip-rule:evenodd;stroke:#06f;stroke-width:2;stroke-linecap:round;stroke-linejoin:round"><path d="m43.0213 24.066c-.5373.0078-1.0056-.3641-1.1196-.8892-.4221-2.1637-2.3176-3.7251-4.522-3.7251s-4.1 1.5614-4.5221 3.7251c-.114.5251-.5823.897-1.1195.8892h-4.7248v4.7248c-.0078.5372.3641 1.0055.8892 1.1195 2.1637.4221 3.7251 2.3177 3.7251 4.5221s-1.5614 4.0999-3.7251 4.522c-.5251.114-.897.5823-.8892 1.1196v4.7248h18.4291c1.2722 0 2.3037-1.0315 2.3037-2.3037v-18.4291z"/><path d="m43.0218 3.33337c-.5373-.00784-1.0056.36412-1.1196.88922-.422 2.16366-2.3176 3.72514-4.5221 3.72514-2.2044 0-4.0999-1.56148-4.522-3.72514-.114-.5251-.5823-.89706-1.1196-.88922h-4.7247v4.72478c.0078.53721-.3642 1.00554-.8892 1.11957-2.1637.42203-3.7252 2.31758-3.7252 4.52208 0 2.2044 1.5615 4.0999 3.7252 4.522.525.114.897.5823.8892 1.1196v4.7247h4.7247c.5373.0079 1.0056-.3641 1.1196-.8892.4221-2.1636 2.3176-3.7252 4.522-3.7252 2.2045 0 4.1001 1.5616 4.5221 3.7252.114.5251.5823.8971 1.1196.8892h4.7247v-18.42907c0-1.2723-1.0313-2.30366-2.3036-2.30366z"/><path d="m6.28088 8.05802c-.00783.53728.36413 1.00561.88921 1.11957 2.16365.42202 3.72511 2.31761 3.72511 4.52201 0 2.2045-1.56146 4.1-3.72511 4.5221-.52508.1139-.89704.5823-.88921 1.1195v4.7248h4.72472c.5373-.0078 1.0056.3641 1.1196.8892.422 2.1637 2.3176 3.7252 4.5221 3.7252 2.2044 0 4.0999-1.5615 4.522-3.7252.114-.5251.5823-.897 1.1196-.8892h4.7247v-4.7248c.0079-.5372-.3641-1.0056-.8892-1.1195-2.1636-.4221-3.7252-2.3176-3.7252-4.5221 0-2.2044 1.5616-4.09999 3.7252-4.52201.5251-.11396.8971-.58229.8892-1.11957v-4.72477h-18.42908c-1.2723 0-2.30364 1.03134-2.30364 2.30364z"/><path d="m27.9028 29.9104c-.5251-.1141-.897-.5824-.8892-1.1196v-4.7248h-4.7248c-.5372-.0078-1.0055.3642-1.1195.8892-.4221 2.1637-2.3176 3.7252-4.5221 3.7252-2.2044 0-4.0999-1.5615-4.522-3.7252-.114-.525-.5823-.897-1.1196-.8892h-4.72475v4.7248c.00783.5372-.36413 1.0055-.88921 1.1196-2.16361.422-3.72514 2.3176-3.72514 4.522s1.56153 4.1 3.72514 4.5221c.52508.1139.89704.5822.88921 1.1195v2.4212c0 1.2722 1.03141 2.3036 2.30364 2.3036h18.42911v-4.7248c-.0078-.5373.3641-1.0056.8892-1.1195 2.1637-.4221 3.7252-2.3177 3.7252-4.5221s-1.5615-4.1-3.7252-4.522z"/></g></svg>