<svg fill="none" height="72" viewBox="0 0 72 72" width="72" xmlns="http://www.w3.org/2000/svg"><g stroke="#06f" stroke-linecap="round" stroke-linejoin="round" stroke-width="2.5"><path d="m36 57c11.598 0 21-9.402 21-21s-9.402-21-21-21-21 9.402-21 21 9.402 21 21 21z"/><path d="m36 15c10.5 14 10.5 28 0 42"/><path d="m36 15c-10.5 14-10.5 28 0 42"/><path d="m16.3799 28.5h39.237"/><path d="m16.3799 43.5h39.24"/><path d="m36 4.5c.8284 0 1.5-.67157 1.5-1.5s-.6716-1.5-1.5-1.5-1.5.67157-1.5 1.5.6716 1.5 1.5 1.5z"/><path d="m59.0244 14.4749c.8284 0 1.5-.6716 1.5-1.5 0-.8285-.6716-1.5-1.5-1.5s-1.5.6715-1.5 1.5c0 .8284.6716 1.5 1.5 1.5z"/><path d="m69 37.5c.8284 0 1.5-.6716 1.5-1.5s-.6716-1.5-1.5-1.5-1.5.6716-1.5 1.5.6716 1.5 1.5 1.5z"/><path d="m59.0244 60.5251c.8284 0 1.5-.6715 1.5-1.5 0-.8284-.6716-1.5-1.5-1.5s-1.5.6716-1.5 1.5c0 .8285.6716 1.5 1.5 1.5z"/><path d="m36 70.5c.8284 0 1.5-.6716 1.5-1.5s-.6716-1.5-1.5-1.5-1.5.6716-1.5 1.5.6716 1.5 1.5 1.5z"/><path d="m12.9756 60.5251c.8284 0 1.5-.6715 1.5-1.5 0-.8284-.6716-1.5-1.5-1.5s-1.5.6716-1.5 1.5c0 .8285.6716 1.5 1.5 1.5z"/><path d="m3 37.5c.82843 0 1.5-.6716 1.5-1.5s-.67157-1.5-1.5-1.5-1.5.6716-1.5 1.5.67157 1.5 1.5 1.5z"/><path d="m12.9756 14.4749c.8284 0 1.5-.6716 1.5-1.5 0-.8285-.6716-1.5-1.5-1.5s-1.5.6715-1.5 1.5c0 .8284.6716 1.5 1.5 1.5z"/></g></svg>